<?xml version="1.0" encoding="UTF-8" standalone="no"?>
<!DOCTYPE svg PUBLIC "-//W3C//DTD SVG 1.1//EN" "http://www.w3.org/Graphics/SVG/1.1/DTD/svg11.dtd">
<svg width="100%" height="100%" viewBox="0 0 1971 1227" version="1.1" xmlns="http://www.w3.org/2000/svg" xmlns:xlink="http://www.w3.org/1999/xlink" xml:space="preserve" xmlns:serif="http://www.serif.com/" style="fill-rule:evenodd;clip-rule:evenodd;stroke-linejoin:round;stroke-miterlimit:2;">
    <g transform="matrix(1,0,0,1,-17.0011,0.497313)">
        <g transform="matrix(1,0,0,1,403.43,864.002)">
            <path d="M0,0L347,0C350.742,7.484 352.894,12.538 354.099,20.416C354.441,22.462 354.784,24.509 355.127,26.555C355.301,27.624 355.475,28.694 355.654,29.796C356.601,35.527 357.65,41.239 358.684,46.955C359.989,54.199 361.263,61.444 362.417,68.713C365.089,96.242 365.089,96.242 378.785,118.472C384.014,121.224 389.279,122.594 395.094,123.505C399.044,124.178 402.438,125.611 406.09,127.199C408.369,128.039 410.651,128.869 412.938,129.688C413.553,129.91 414.168,130.132 414.802,130.361C488.989,157.155 569.39,168.133 648,160C649.201,159.876 650.401,159.753 651.638,159.625C706.829,153.694 760.134,139.065 811,117C813.333,115.998 815.666,114.999 818,114C818.108,113.016 818.217,112.033 818.328,111.019C819.355,101.693 820.385,92.368 821.417,83.042C821.947,78.249 822.476,73.456 823.004,68.663C823.514,64.027 824.027,59.391 824.541,54.755C824.735,52.997 824.929,51.239 825.122,49.481C828.784,16.129 828.784,16.129 834,7C834.322,6.414 834.643,5.827 834.974,5.223C837.202,1.921 838.906,0.246 842.863,-0.643C846.613,-0.886 850.331,-0.9 854.085,-0.842C855.542,-0.845 856.999,-0.851 858.456,-0.86C862.456,-0.876 866.455,-0.848 870.456,-0.812C874.77,-0.782 879.085,-0.792 883.4,-0.798C890.875,-0.801 898.349,-0.779 905.823,-0.74C916.63,-0.683 927.437,-0.665 938.244,-0.656C955.777,-0.641 973.31,-0.594 990.843,-0.528C1007.88,-0.464 1024.91,-0.414 1041.94,-0.385C1042.99,-0.383 1044.04,-0.381 1045.12,-0.379C1050.39,-0.37 1055.65,-0.361 1060.92,-0.352C1104.61,-0.28 1148.31,-0.156 1192,0C1193.28,2.497 1194.55,4.998 1195.81,7.5C1196.35,8.544 1196.35,8.544 1196.89,9.609C1200.89,17.535 1204.69,25.061 1202.5,34.07C1200.4,40.364 1197.07,45.182 1191.12,48.375C1187.02,49.961 1183.5,50.195 1179.11,50.153C1178.13,50.144 1178.13,50.144 1177.13,50.135C1170.1,50.043 1163.09,49.607 1156.07,49.176C1152.58,48.989 1149.09,48.818 1145.59,48.648C1141.98,48.469 1138.38,48.268 1134.77,48.025C1131.24,47.787 1127.7,47.605 1124.16,47.461C1122.18,47.366 1120.21,47.213 1118.24,47.059C1112.89,46.878 1109.45,46.909 1105.09,50.194C1102.04,53.566 1099.42,56.711 1098.59,61.269C1098.8,63.529 1099.32,65.417 1100.05,67.566C1100.5,69.221 1100.95,70.877 1101.4,72.532C1101.66,73.41 1101.92,74.289 1102.19,75.194C1103.66,80.278 1104.8,85.441 1106.02,90.59C1106.55,92.798 1107.08,95.006 1107.62,97.213C1108.02,98.872 1108.02,98.872 1108.43,100.564C1108.98,102.826 1109.53,105.088 1110.09,107.349C1110.91,110.676 1111.72,114.008 1112.52,117.34C1112.77,118.334 1113.02,119.328 1113.27,120.352C1115.38,129.226 1117.1,139.082 1112.27,147.316C1109.32,151.221 1105.55,154.163 1101,156C1091.39,157.082 1082.41,155.31 1073.17,152.853C1070.98,152.273 1068.78,151.718 1066.58,151.17C1060.34,149.61 1054.11,148.017 1047.89,146.383C1044.05,145.379 1040.21,144.411 1036.36,143.466C1034.91,143.101 1033.46,142.722 1032.01,142.329C1024.21,139.943 1024.21,139.943 1016.42,141.055C1014.38,142.571 1012.74,144.152 1011,146C1010.28,146.496 1009.56,146.992 1008.82,147.503C1006.62,148.964 1006.62,148.964 1006.62,152.318C1006.66,153.709 1006.72,155.099 1006.79,156.488C1006.83,157.627 1006.83,157.627 1006.87,158.788C1006.93,160.434 1006.99,162.08 1007.07,163.726C1007.19,166.333 1007.28,168.939 1007.37,171.548C1007.62,178.834 1007.92,186.118 1008.23,193.402C1008.41,197.717 1008.57,202.033 1008.72,206.349C1008.81,208.762 1008.93,211.173 1009.05,213.585C1009.41,222.424 1009.51,230.934 1003.29,237.923C998.781,242.196 994.108,243.999 987.938,244.438C974.986,243.933 961.225,235.042 949.688,229.625C947.907,228.791 946.127,227.958 944.346,227.125C943.472,226.716 942.599,226.307 941.699,225.886C939.958,225.075 938.212,224.272 936.464,223.475C932.437,221.638 928.498,219.756 924.635,217.593C923.947,217.232 923.26,216.87 922.551,216.498C920.728,215.538 918.932,214.526 917.14,213.509C912.451,212.172 908.058,214.192 903.891,216.276C900.024,218.612 898.087,220.775 896.784,225.269C896.016,228.877 895.548,232.492 895.113,236.152C894.877,237.738 894.635,239.323 894.388,240.908C893.753,245.062 893.194,249.223 892.651,253.391C891.98,258.441 891.226,263.478 890.48,268.518C889.9,272.441 889.334,276.364 888.81,280.296C886.27,299.02 886.27,299.02 878.039,305.59C872.904,309.141 867.108,309.909 861,309C855.416,306.995 850.963,304.102 846.188,300.625C845.457,300.101 844.726,299.577 843.973,299.038C841.644,297.365 839.322,295.683 837,294C835.461,292.89 833.922,291.781 832.383,290.672C829.353,288.488 826.326,286.3 823.301,284.109C816.56,279.23 816.56,279.23 809.776,274.413C807.195,272.596 804.685,270.745 802.23,268.758C797.918,265.156 797.918,265.156 792.633,263.984C790.335,264.495 788.214,265.208 786,266C784.652,266.244 783.297,266.456 781.938,266.625C780.968,266.749 779.999,266.873 779,267C778.764,267.838 778.764,267.838 778.522,268.694C776.324,276.267 773.663,283.648 770.922,291.039C770.68,291.693 770.437,292.347 770.188,293.02C768.907,296.474 767.621,299.926 766.332,303.377C765.275,306.209 764.228,309.045 763.19,311.884C761.925,315.344 760.642,318.798 759.348,322.247C758.862,323.55 758.382,324.855 757.908,326.163C754.956,334.293 751.84,342.632 743.977,347.167C738.442,349.657 732.538,349.96 726.711,348.379C718.025,345.021 712.625,337.809 706.715,330.934C704.5,328.436 702.131,326.12 699.75,323.781C697.294,321.281 695.037,318.623 692.75,315.969C691.062,314.07 689.312,312.28 687.5,310.5C685.087,308.13 682.827,305.693 680.625,303.125C679.745,302.141 679.745,302.141 678.848,301.137C677,299 677,299 675.121,296.457C671.416,291.806 671.416,291.806 666.034,289.707C661.286,289.596 656.674,290.214 652,291C651.726,291.729 651.453,292.457 651.171,293.208C650.051,295.878 648.78,298.21 647.27,300.676C646.447,302.024 646.447,302.024 645.608,303.399C645.015,304.361 644.423,305.322 643.813,306.313C643.198,307.316 642.583,308.32 641.949,309.354C635.608,319.684 629.207,329.977 622.742,340.229C621.536,342.147 620.34,344.072 619.153,346.001C618.549,346.973 617.946,347.944 617.324,348.945C616.788,349.817 616.251,350.688 615.698,351.586C612.45,356.203 608.399,360.2 603,362C595.267,362.645 588.334,362.877 582,358C576.669,352.008 572.701,344.828 568.563,338C567.153,335.689 565.74,333.38 564.328,331.07C563.971,330.486 563.614,329.901 563.246,329.298C559.477,323.131 555.649,317.001 551.813,310.875C551.202,309.899 550.591,308.923 549.961,307.918C548.824,306.102 547.681,304.29 546.532,302.482C545.551,300.893 544.612,299.278 543.728,297.634C541.62,293.802 540.531,292.265 536.504,290.254C531.591,289.144 526.564,288.407 522.116,291.171C518.133,294.609 514.936,298.717 511.713,302.855C509.018,306.229 506.042,309.316 503.063,312.438C501.905,313.676 500.749,314.915 499.594,316.156C497.079,318.849 494.557,321.536 492.031,324.219C491.369,324.923 490.706,325.628 490.023,326.354C488.762,327.694 487.5,329.033 486.237,330.371C483.189,333.61 480.235,336.892 477.359,340.285C472.946,345.35 468.109,348.298 461.418,349.441C455.436,349.726 450.886,348.427 446,345C441.107,340.386 438.519,335.365 436.219,329.129C435.888,328.269 435.558,327.409 435.218,326.523C434.506,324.663 433.8,322.801 433.101,320.936C431.973,317.927 430.826,314.926 429.676,311.925C427.667,306.673 425.681,301.413 423.706,296.148C422.478,292.88 421.243,289.615 420.008,286.35C419.223,284.263 418.44,282.177 417.656,280.09C417.288,279.118 416.919,278.146 416.539,277.145C416.037,275.801 416.037,275.801 415.525,274.429C415.082,273.251 415.082,273.251 414.63,272.048C414,270 414,270 414,267C412.37,266.792 410.739,266.584 409.109,266.376C407,266 407,266 404.96,265.299C401.549,264.185 399.119,263.564 395.701,264.895C393.268,266.391 391.017,268.012 388.75,269.75C387.918,270.353 387.086,270.957 386.229,271.578C383.794,273.355 381.393,275.168 379,277C378.396,277.461 377.792,277.922 377.17,278.396C374.585,280.378 372.018,282.379 369.457,284.391C364.403,288.278 359.084,291.8 353.797,295.359C349.348,298.36 345.006,301.446 340.757,304.724C334.909,308.971 329.024,309.991 322,309C315.617,306.931 310.807,303.16 307.453,297.295C305.869,293.703 305.184,290.523 304.558,286.649C304.44,285.94 304.323,285.23 304.202,284.499C303.819,282.173 303.45,279.844 303.082,277.516C302.818,275.892 302.553,274.269 302.288,272.646C301.593,268.387 300.911,264.126 300.231,259.865C299.673,256.378 299.106,252.893 298.538,249.407C297.863,245.256 297.19,241.105 296.52,236.953C296.391,236.159 296.263,235.365 296.131,234.547C295.77,232.31 295.411,230.071 295.054,227.833C294.85,226.559 294.646,225.284 294.435,223.971C294,221 294,221 294,219C293.154,218.753 292.309,218.505 291.438,218.25C288.662,217.241 286.898,216.331 284.5,214.75C281.214,212.635 281.214,212.635 278.269,213.67C274.528,215.192 270.858,216.818 267.199,218.527C266.453,218.872 265.707,219.218 264.939,219.573C263.345,220.311 261.751,221.05 260.158,221.79C256.001,223.721 251.839,225.64 247.676,227.559C246.849,227.94 246.023,228.32 245.171,228.713C237.935,232.042 230.668,235.297 223.375,238.5C222.352,238.95 221.33,239.4 220.276,239.863C212.284,243.357 205.563,245.642 196.875,243C191.438,240.716 187.568,236.071 184.924,230.893C183.712,227.098 183.721,223.518 183.773,219.578C183.779,218.718 183.784,217.859 183.789,216.973C183.885,209.11 184.337,201.271 184.789,193.422C184.997,189.522 185.201,185.623 185.404,181.723C185.553,179.05 185.714,176.383 185.9,173.712C186.17,169.805 186.356,165.896 186.539,161.984C186.634,160.798 186.73,159.611 186.828,158.389C187.075,151.873 187.075,151.873 183.804,146.453C180.697,143.931 177.58,141.79 174,140C171.902,140.375 169.822,140.845 167.753,141.355C167.112,141.511 166.471,141.667 165.81,141.828C164.414,142.168 163.018,142.511 161.623,142.857C159.403,143.407 157.181,143.946 154.957,144.483C148.634,146.01 142.314,147.55 135.999,149.109C132.136,150.062 128.268,150.999 124.399,151.926C122.935,152.28 121.473,152.64 120.012,153.006C96.683,158.851 96.683,158.851 88,154.438C81.893,149.476 77.85,145.021 77,137C77.454,129.287 79.384,121.998 81.313,114.545C82.29,110.743 83.225,106.932 84.166,103.121C85.359,98.295 86.564,93.474 87.823,88.665C88.845,84.754 89.819,80.834 90.763,76.904C91.129,75.417 91.512,73.933 91.913,72.455C94.387,64.16 94.387,64.16 92.414,56.1C90.401,53.838 88.324,51.931 86,50C85.67,49.34 85.34,48.68 85,48C84.229,48.025 83.459,48.05 82.665,48.076C75.34,48.314 68.016,48.549 60.692,48.782C56.928,48.902 53.164,49.023 49.4,49.146C45.756,49.264 42.112,49.381 38.468,49.496C37.09,49.54 35.711,49.584 34.333,49.63C2.986,50.661 2.986,50.661 -2.965,45.195C-9.655,37.944 -10,33.531 -10,23C-6.7,15.41 -3.4,7.82 0,0ZM241.895,53.391C234.066,64.006 230.968,74.918 232,88C234.619,100.272 240.956,109.58 251,117C261.457,123.478 272.007,125.504 284,122.75C295.127,119.71 304.199,113.946 310.875,104.25C316.621,93.923 318.781,82.453 316.34,70.867C313.236,60.361 307.11,51.216 298,45C278.944,34.81 256.752,36.52 241.895,53.391ZM879.625,56.813C876.056,61.535 873.751,66.362 872,72C871.809,72.611 871.618,73.222 871.422,73.852C868.967,86.354 871.538,98.249 878.563,108.75C885.213,117.285 894.271,123.87 905,126C917.974,127.445 929.085,125.452 939.871,117.754C948.718,110.465 954.936,101.113 956.777,89.691C957.814,77.159 954.661,65.607 946.648,55.805C939.051,47.488 929.748,41.496 918.277,40.762C902.484,40.355 890.174,44.392 879.625,56.813Z" style="fill:white;fill-rule:nonzero;"/>
        </g>
        <g transform="matrix(1,0,0,1,1012.38,1)">
            <path d="M0,0C7.229,5.508 11.898,13.214 16.563,20.875C17.516,22.42 17.516,22.42 18.488,23.996C20.187,26.753 21.879,29.514 23.569,32.277C25.367,35.212 27.174,38.141 28.98,41.07C32.312,46.475 35.637,51.883 38.954,57.297C40.474,59.756 42.026,62.191 43.586,64.625C45.625,68 45.625,68 45.625,70C55.639,71.887 55.639,71.887 65.066,69.531C66.794,67.446 68.197,65.298 69.625,63C70.758,61.8 71.925,60.632 73.125,59.5C75.579,57.089 77.879,54.606 80.125,52C82.371,49.394 84.671,46.911 87.125,44.5C89.559,42.109 91.839,39.65 94.063,37.063C97.1,33.535 100.327,30.27 103.652,27.016C105.617,25.008 107.397,22.913 109.188,20.75C113.222,16.05 118.247,12.449 124.605,11.797C130.906,11.663 136.309,12.266 141.311,16.39C147.43,22.839 150.016,30.618 152.996,38.805C153.568,40.336 154.141,41.867 154.715,43.397C156.212,47.398 157.687,51.408 159.158,55.419C160.367,58.703 161.592,61.982 162.818,65.261C164.278,69.169 165.732,73.08 167.184,76.992C167.6,78.112 167.6,78.112 168.024,79.255C168.803,81.357 169.577,83.461 170.349,85.566C170.79,86.763 171.231,87.96 171.685,89.194C172.625,92 172.625,92 172.625,94C174.166,94.314 175.708,94.626 177.25,94.938C178.109,95.112 178.967,95.286 179.852,95.465C180.767,95.641 181.682,95.818 182.625,96C184.083,96.408 184.083,96.408 185.57,96.824C189.713,97.063 191.774,95.337 194.875,92.875C196.109,91.945 197.343,91.015 198.578,90.086C199.231,89.585 199.884,89.085 200.557,88.569C204.195,85.809 207.916,83.163 211.625,80.5C213.164,79.388 214.703,78.276 216.242,77.164C222.353,72.752 228.469,68.349 234.625,64C235.315,63.512 236.004,63.023 236.715,62.52C238.888,60.985 241.068,59.46 243.25,57.938C243.926,57.46 244.601,56.982 245.297,56.49C245.934,56.048 246.571,55.607 247.227,55.152C247.787,54.76 248.347,54.368 248.924,53.965C253.95,51.114 260.213,51.37 265.742,52.391C271.688,54.195 275.352,57.812 278.625,63C281.477,71.108 282.432,79.797 283.551,88.278C284.142,92.671 284.803,97.054 285.449,101.439C286.008,105.267 286.544,109.095 287.034,112.933C287.514,116.684 288.056,120.422 288.64,124.159C288.849,125.571 289.036,126.986 289.199,128.404C289.938,134.728 290.649,139.378 295.715,143.537C300.698,146.464 304.7,148.375 310.548,147.236C313.126,146.275 315.519,145.366 317.917,144.042C318.573,143.689 319.228,143.336 319.903,142.972C320.574,142.61 321.246,142.248 321.938,141.875C323.353,141.164 324.772,140.459 326.194,139.759C329.164,138.293 332.119,136.801 335.066,135.291C341.856,131.843 348.803,128.736 355.747,125.613C357.907,124.639 360.061,123.653 362.214,122.664C363.535,122.059 364.855,121.455 366.176,120.852C367.327,120.324 368.479,119.796 369.665,119.252C376.573,116.329 383.323,115.788 390.375,118.625C396.315,121.585 399.798,126.037 402.045,132.282C403.256,137.961 402.728,143.849 402.478,149.619C402.373,152.105 402.295,154.59 402.224,157.077C401.981,165.115 401.639,173.138 401.11,181.162C400.884,184.693 400.701,188.226 400.522,191.76C400.425,193.448 400.307,195.136 400.166,196.821C399.624,203.377 399.219,209.221 402.274,215.258C405.098,218.353 407.526,220.195 411.625,221C419.61,220.991 427.367,218.477 435,216.375C437.083,215.841 439.168,215.313 441.254,214.789C445.376,213.747 449.49,212.679 453.6,211.586C459.443,210.039 465.301,208.563 471.176,207.141C472.017,206.932 472.858,206.724 473.725,206.509C482.146,204.489 491.362,202.645 499.25,207.188C503.875,210.696 506.737,214.51 508.625,220C509.734,228.826 507.747,237.232 505.601,245.74C505.042,247.957 504.501,250.177 503.964,252.4C502.63,257.906 501.267,263.404 499.905,268.903C498.747,273.579 497.601,278.257 496.47,282.939C495.937,285.125 495.388,287.306 494.838,289.487C494.513,290.822 494.19,292.158 493.867,293.494C493.578,294.657 493.289,295.82 492.992,297.018C492.586,300.321 492.83,301.285 494.625,304C495.03,304.773 495.434,305.547 495.851,306.344C498.294,310.194 500.078,312.635 504.638,313.711C508.404,313.85 512.098,313.7 515.852,313.441C517.245,313.38 518.639,313.322 520.033,313.268C523.697,313.116 527.355,312.91 531.016,312.691C534.701,312.479 538.387,312.316 542.074,312.15C547.513,311.904 552.949,311.625 558.385,311.326C582.815,310.12 582.815,310.12 590.504,316.578C595.306,321.716 597.208,327.647 597.004,334.715C595.799,341.981 591.782,348.707 588.52,355.22C587.978,356.302 587.437,357.384 586.878,358.499C586.465,359.324 586.051,360.15 585.625,361C558.956,361.281 532.288,361.492 505.618,361.622C493.234,361.684 480.851,361.768 468.468,361.905C457.672,362.025 446.877,362.102 436.081,362.129C430.366,362.145 424.653,362.181 418.938,362.269C413.554,362.351 408.173,362.375 402.788,362.357C400.817,362.361 398.846,362.384 396.876,362.43C381.238,362.779 381.238,362.779 376.113,358.416C373.259,355.535 370.969,352.304 368.625,349C367.007,347.276 365.362,345.576 363.676,343.918C362.89,343.131 362.104,342.344 361.295,341.533C360.517,340.759 359.739,339.985 358.938,339.188C358.148,338.394 357.358,337.601 356.545,336.783C351.734,331.98 346.783,327.425 341.625,323C340.468,321.978 339.313,320.955 338.16,319.93C329.632,312.404 320.813,305.383 311.708,298.569C309.726,297.076 307.761,295.564 305.801,294.043C280.949,274.879 253.608,259.091 225.625,245C224.604,244.479 223.582,243.959 222.53,243.422C184.054,223.887 142.803,210.425 100.75,201C99.787,200.78 98.824,200.56 97.832,200.333C96.941,200.141 96.05,199.948 95.133,199.75C94.356,199.58 93.579,199.41 92.778,199.234C89.416,198.868 87.461,199.358 84.769,201.424C84.141,202.025 83.514,202.626 82.867,203.246C82.164,203.914 81.461,204.582 80.736,205.27C79.998,205.985 79.26,206.7 78.5,207.438C77.74,208.164 76.979,208.89 76.196,209.638C71.301,214.328 66.495,219.097 61.734,223.922C59.819,225.808 57.859,227.571 55.813,229.313C52.054,232.522 48.598,235.988 45.125,239.5C41.735,242.928 38.373,246.323 34.688,249.438C30.788,252.734 27.265,256.364 23.688,260C18.634,265.104 13.624,269.997 7.625,274C7.032,274.406 6.439,274.812 5.828,275.23C-2.608,280.223 -14.315,281.147 -23.719,278.852C-38.592,274.083 -47.942,263.458 -57.949,251.898C-61.103,248.261 -64.433,244.863 -67.875,241.5C-71.305,238.112 -74.698,234.748 -77.813,231.063C-81.684,226.492 -85.99,222.36 -90.244,218.151C-93.397,215.018 -96.472,211.869 -99.375,208.5C-99.898,207.904 -100.422,207.309 -100.961,206.695C-102.375,205 -102.375,205 -103.664,203.117C-105.159,201.167 -106.199,200.156 -108.375,199C-118.249,199.264 -128.367,202.478 -137.938,204.875C-139.093,205.163 -139.093,205.163 -140.271,205.457C-194.638,219.124 -247.139,241.832 -294.375,272C-294.991,272.392 -295.606,272.785 -296.241,273.189C-299.669,275.389 -303.031,277.674 -306.375,280C-306.989,280.424 -307.604,280.849 -308.237,281.286C-322.801,291.358 -336.971,301.891 -350.391,313.453C-353.216,315.864 -356.095,318.186 -359,320.5C-363.937,324.51 -368.374,328.901 -372.816,333.438C-374.98,335.604 -377.175,337.636 -379.5,339.625C-386.224,345.386 -392.304,351.751 -398.063,358.469C-398.806,359.336 -399.567,360.192 -400.375,361C-403.03,361.098 -405.66,361.13 -408.316,361.12C-409.579,361.122 -409.579,361.122 -410.868,361.123C-413.711,361.125 -416.555,361.119 -419.399,361.114C-421.428,361.113 -423.458,361.113 -425.488,361.114C-431.016,361.114 -436.545,361.108 -442.074,361.101C-447.845,361.095 -453.616,361.095 -459.387,361.093C-470.323,361.09 -481.259,361.082 -492.196,361.072C-504.643,361.061 -517.09,361.055 -529.537,361.05C-555.15,361.04 -580.762,361.022 -606.375,361C-608.076,357.411 -609.729,353.802 -611.375,350.188C-612.09,348.68 -612.09,348.68 -612.82,347.143C-616.151,339.744 -618.146,332.643 -615.637,324.65C-613.533,319.644 -609.97,315.852 -605.375,313C-594.559,308.764 -581.657,311.133 -570.289,311.789C-566.728,311.969 -563.167,312.135 -559.606,312.3C-555.92,312.474 -552.236,312.667 -548.553,312.9C-544.946,313.127 -541.34,313.302 -537.729,313.444C-535.71,313.537 -533.695,313.682 -531.68,313.828C-524.665,314.13 -524.665,314.13 -518.748,310.804C-516.225,307.698 -514.163,304.575 -512.375,301C-512.744,298.876 -513.209,296.769 -513.714,294.674C-513.869,294.025 -514.023,293.375 -514.182,292.707C-514.519,291.294 -514.859,289.882 -515.202,288.47C-515.746,286.23 -516.282,283.988 -516.815,281.746C-517.953,276.974 -519.101,272.206 -520.25,267.438C-521.575,261.935 -522.895,256.43 -524.206,250.924C-524.732,248.727 -525.264,246.532 -525.797,244.336C-530.989,222.725 -530.989,222.725 -526.375,214C-522.175,209.253 -518.107,205.305 -511.581,204.772C-502.807,204.601 -495.012,205.895 -486.546,208.147C-484.354,208.727 -482.158,209.282 -479.958,209.83C-473.717,211.39 -467.485,212.983 -461.262,214.617C-457.428,215.621 -453.586,216.589 -449.737,217.534C-448.283,217.899 -446.833,218.278 -445.386,218.671C-437.585,221.057 -437.585,221.057 -429.799,219.945C-427.758,218.429 -426.114,216.848 -424.375,215C-423.652,214.55 -422.93,214.1 -422.186,213.637C-420.124,212.117 -420.124,212.117 -419.97,209.483C-420.037,207.975 -420.037,207.975 -420.104,206.437C-420.145,205.294 -420.185,204.151 -420.227,202.974C-420.291,201.733 -420.356,200.493 -420.422,199.215C-420.498,197.25 -420.575,195.286 -420.651,193.321C-420.764,190.556 -420.896,187.793 -421.027,185.029C-421.187,181.608 -421.328,178.186 -421.469,174.764C-421.51,173.766 -421.51,173.766 -421.552,172.748C-421.634,170.758 -421.715,168.767 -421.797,166.777C-421.85,165.479 -421.903,164.182 -421.958,162.844C-422.544,148.267 -422.544,148.267 -422.641,141.566C-422.676,139.618 -422.676,139.618 -422.712,137.631C-422.23,132.433 -420.871,127.831 -417.543,123.758C-411.699,118.94 -406.721,116.365 -399.005,116.644C-396.078,117.04 -393.837,117.879 -391.125,119.047C-390.069,119.501 -389.013,119.956 -387.925,120.424C-381.851,123.12 -375.802,125.869 -369.765,128.647C-367.459,129.706 -365.15,130.761 -362.841,131.814C-356.004,134.935 -349.18,138.075 -342.41,141.34C-341.405,141.818 -340.4,142.296 -339.365,142.788C-337.551,143.653 -335.745,144.534 -333.948,145.432C-329.201,147.696 -329.201,147.696 -324.035,147.375C-320.783,145.707 -320.783,145.707 -317.625,143.875C-314.375,142 -314.375,142 -312.375,142C-312.149,140.511 -312.149,140.511 -311.919,138.991C-310.518,129.748 -309.098,120.508 -307.659,111.271C-306.958,106.77 -306.262,102.269 -305.583,97.765C-304.962,93.657 -304.325,89.552 -303.676,85.449C-303.436,83.914 -303.202,82.379 -302.975,80.842C-300.142,61.772 -300.142,61.772 -293.277,56.34C-287.149,52.289 -281.662,51.151 -274.375,52C-264.896,54.786 -256.582,62.454 -248.754,68.246C-244.982,71.027 -241.178,73.762 -237.375,76.5C-232.695,79.87 -228.026,83.252 -223.383,86.672C-222.566,87.271 -221.748,87.869 -220.906,88.486C-219.337,89.636 -217.772,90.791 -216.211,91.951C-215.151,92.726 -215.151,92.726 -214.07,93.516C-213.142,94.201 -213.142,94.201 -212.196,94.899C-209.294,96.653 -207.253,97.201 -203.938,96.441C-203.092,96.151 -202.246,95.861 -201.375,95.563C-198.009,94.418 -196.024,94 -192.375,94C-192.256,93.306 -192.138,92.612 -192.016,91.897C-191.305,88.682 -190.27,85.739 -189.122,82.653C-188.894,82.037 -188.666,81.422 -188.432,80.788C-187.681,78.765 -186.925,76.744 -186.168,74.723C-185.641,73.309 -185.114,71.896 -184.587,70.483C-183.482,67.524 -182.375,64.566 -181.265,61.609C-179.849,57.831 -178.443,54.05 -177.039,50.267C-175.954,47.348 -174.862,44.431 -173.768,41.514C-173.247,40.122 -172.728,38.728 -172.212,37.334C-171.487,35.379 -170.753,33.428 -170.016,31.477C-169.602,30.368 -169.187,29.26 -168.76,28.118C-165.659,21.138 -161.688,16.516 -155.125,12.688C-147.822,10.862 -141.522,11.473 -134.922,15.152C-130.265,18.53 -126.667,22.88 -122.938,27.215C-120.086,30.472 -117.097,33.602 -114.125,36.75C-112.846,38.112 -111.567,39.474 -110.289,40.836C-108.322,42.929 -106.354,45.022 -104.386,47.114C-103.068,48.514 -101.752,49.916 -100.437,51.318C-99.156,52.678 -97.87,54.033 -96.577,55.381C-93.851,58.243 -91.254,61.047 -88.996,64.297C-85.935,68.502 -83.876,70.58 -78.801,72C-74.099,72.419 -70.322,71.637 -66.375,69C-60.829,63.045 -57.16,55.597 -53.308,48.493C-50.079,42.658 -46.528,37.033 -43,31.375C-41.659,29.203 -40.319,27.029 -38.98,24.855C-38.36,23.849 -37.739,22.843 -37.099,21.806C-35.592,19.353 -34.1,16.891 -32.613,14.426C-24.818,1.658 -15.454,-4.579 0,0ZM-45.188,141.75C-53.987,152.401 -55.516,164.693 -54.375,178C-52.816,185.483 -49.368,191.303 -44.375,197C-43.897,197.594 -43.419,198.189 -42.926,198.801C-36.259,206.374 -25.691,211.344 -15.719,212.238C-2.652,212.579 7.886,208.756 17.625,200C25.857,191.628 30.074,180.996 30.875,169.375C30.65,157.568 25.91,147.498 18.125,138.813C8.838,129.957 -2.857,126.472 -15.418,126.727C-27.308,127.548 -37.064,133.206 -45.188,141.75Z" style="fill:white;fill-rule:nonzero;"/>
        </g>
        <g transform="matrix(19.5175,0,0,19.5175,-5001.75,-11932.3)">
            <g transform="matrix(12,0,0,12,264.84,641.477)">
                <path d="M0.05,-0.006L0.05,-0.13C0.128,-0.098 0.194,-0.082 0.25,-0.082C0.288,-0.082 0.319,-0.09 0.341,-0.107C0.363,-0.125 0.375,-0.148 0.375,-0.178C0.375,-0.201 0.368,-0.221 0.354,-0.237C0.34,-0.253 0.313,-0.272 0.274,-0.294L0.226,-0.321C0.161,-0.358 0.115,-0.393 0.088,-0.426C0.062,-0.459 0.048,-0.498 0.048,-0.543C0.048,-0.603 0.07,-0.65 0.114,-0.687C0.158,-0.723 0.216,-0.741 0.288,-0.741C0.345,-0.741 0.41,-0.732 0.482,-0.716L0.482,-0.6C0.409,-0.628 0.35,-0.642 0.307,-0.642C0.274,-0.642 0.247,-0.634 0.227,-0.619C0.207,-0.605 0.197,-0.585 0.197,-0.561C0.197,-0.541 0.204,-0.524 0.218,-0.509C0.232,-0.494 0.259,-0.475 0.297,-0.454L0.349,-0.425C0.419,-0.386 0.467,-0.35 0.493,-0.317C0.52,-0.284 0.533,-0.244 0.533,-0.197C0.533,-0.13 0.508,-0.077 0.458,-0.039C0.408,-0.001 0.34,0.018 0.252,0.018C0.194,0.018 0.127,0.01 0.05,-0.006Z" style="fill:white;fill-rule:nonzero;"/>
            </g>
            <g transform="matrix(12,0,0,12,271.695,641.477)">
                <path d="M0.353,-0.058C0.305,-0.011 0.253,0.012 0.198,0.012C0.151,0.012 0.113,-0.002 0.084,-0.031C0.055,-0.059 0.04,-0.097 0.04,-0.142C0.04,-0.201 0.064,-0.247 0.111,-0.279C0.158,-0.311 0.226,-0.327 0.314,-0.327L0.353,-0.327L0.353,-0.376C0.353,-0.432 0.321,-0.459 0.258,-0.459C0.201,-0.459 0.145,-0.444 0.087,-0.412L0.087,-0.511C0.152,-0.536 0.217,-0.548 0.281,-0.548C0.422,-0.548 0.492,-0.493 0.492,-0.381L0.492,-0.144C0.492,-0.102 0.505,-0.081 0.532,-0.081C0.537,-0.081 0.543,-0.081 0.551,-0.083L0.555,-0.001C0.524,0.008 0.497,0.012 0.474,0.012C0.414,0.012 0.376,-0.011 0.359,-0.058L0.353,-0.058ZM0.353,-0.135L0.353,-0.244L0.319,-0.244C0.225,-0.244 0.179,-0.215 0.179,-0.156C0.179,-0.136 0.185,-0.12 0.199,-0.106C0.212,-0.093 0.229,-0.086 0.249,-0.086C0.283,-0.086 0.318,-0.102 0.353,-0.135Z" style="fill:white;fill-rule:nonzero;"/>
            </g>
            <g transform="matrix(12,0,0,12,278.75,641.477)">
                <path d="M0.105,-0L0.105,-0.446L0.032,-0.446L0.032,-0.536L0.105,-0.536L0.105,-0.575C0.105,-0.714 0.171,-0.783 0.303,-0.783C0.346,-0.783 0.39,-0.777 0.435,-0.765L0.435,-0.667C0.394,-0.684 0.357,-0.693 0.325,-0.693C0.275,-0.693 0.25,-0.655 0.25,-0.58L0.25,-0.536L0.386,-0.536L0.386,-0.446L0.25,-0.446L0.25,-0L0.105,-0Z" style="fill:white;fill-rule:nonzero;"/>
            </g>
            <g transform="matrix(12,0,0,12,283.725,641.477)">
                <path d="M0.527,-0.018C0.458,0.002 0.393,0.012 0.332,0.012C0.242,0.012 0.171,-0.013 0.12,-0.064C0.068,-0.115 0.042,-0.184 0.042,-0.272C0.042,-0.355 0.066,-0.422 0.113,-0.472C0.16,-0.523 0.223,-0.548 0.301,-0.548C0.379,-0.548 0.437,-0.524 0.473,-0.474C0.509,-0.425 0.527,-0.346 0.527,-0.239L0.194,-0.239C0.204,-0.137 0.26,-0.086 0.363,-0.086C0.411,-0.086 0.466,-0.097 0.527,-0.12L0.527,-0.018ZM0.192,-0.321L0.385,-0.321C0.385,-0.412 0.355,-0.458 0.296,-0.458C0.236,-0.458 0.202,-0.412 0.192,-0.321Z" style="fill:white;fill-rule:nonzero;"/>
            </g>
            <g transform="matrix(12,0,0,12,290.756,641.477)">
                <path d="M0.367,-0.003C0.332,0.007 0.305,0.012 0.285,0.012C0.16,0.012 0.097,-0.046 0.097,-0.164L0.097,-0.446L0.037,-0.446L0.037,-0.536L0.097,-0.536L0.097,-0.626L0.242,-0.643L0.242,-0.536L0.356,-0.536L0.356,-0.446L0.242,-0.446L0.242,-0.183C0.242,-0.117 0.269,-0.084 0.322,-0.084C0.335,-0.084 0.349,-0.086 0.367,-0.091L0.367,-0.003Z" style="fill:white;fill-rule:nonzero;"/>
            </g>
            <g transform="matrix(12,0,0,12,295.619,641.477)">
                <path d="M0.092,0.193L0.214,-0L0.015,-0.536L0.17,-0.536L0.303,-0.178L0.461,-0.536L0.571,-0.536L0.24,0.193L0.092,0.193Z" style="fill:white;fill-rule:nonzero;"/>
            </g>
            <g transform="matrix(12,0,0,12,302.615,641.477)">
                <rect x="0.025" y="-0.326" width="0.26" height="0.107" style="fill:white;fill-rule:nonzero;"/>
            </g>
            <g transform="matrix(12,0,0,12,306.335,641.477)">
                <path d="M0.672,-0.029C0.602,0.002 0.518,0.018 0.421,0.018C0.303,0.018 0.211,-0.015 0.145,-0.082C0.078,-0.149 0.045,-0.242 0.045,-0.361C0.045,-0.483 0.079,-0.577 0.145,-0.642C0.212,-0.708 0.307,-0.741 0.43,-0.741C0.509,-0.741 0.587,-0.731 0.665,-0.713L0.665,-0.595C0.577,-0.626 0.503,-0.642 0.443,-0.642C0.367,-0.642 0.308,-0.617 0.267,-0.569C0.226,-0.521 0.205,-0.452 0.205,-0.363C0.205,-0.276 0.227,-0.208 0.272,-0.159C0.316,-0.11 0.378,-0.086 0.457,-0.086C0.528,-0.086 0.6,-0.104 0.672,-0.14L0.672,-0.029Z" style="fill:white;fill-rule:nonzero;"/>
            </g>
            <g transform="matrix(12,0,0,12,314.884,641.477)">
                <path d="M0.09,-0L0.09,-0.536L0.235,-0.536L0.235,-0.435C0.272,-0.511 0.329,-0.548 0.406,-0.548C0.415,-0.548 0.424,-0.547 0.433,-0.545L0.433,-0.417C0.412,-0.424 0.393,-0.428 0.375,-0.428C0.318,-0.428 0.271,-0.399 0.235,-0.34L0.235,-0L0.09,-0Z" style="fill:white;fill-rule:nonzero;"/>
            </g>
            <g transform="matrix(12,0,0,12,320.339,641.477)">
                <path d="M0.09,-0L0.09,-0.536L0.235,-0.536L0.235,-0L0.09,-0ZM0.09,-0.626L0.09,-0.747L0.235,-0.747L0.235,-0.626L0.09,-0.626Z" style="fill:white;fill-rule:nonzero;"/>
            </g>
            <g transform="matrix(12,0,0,12,324.242,641.477)">
                <path d="M0.367,-0.003C0.332,0.007 0.305,0.012 0.285,0.012C0.16,0.012 0.097,-0.046 0.097,-0.164L0.097,-0.446L0.037,-0.446L0.037,-0.536L0.097,-0.536L0.097,-0.626L0.242,-0.643L0.242,-0.536L0.356,-0.536L0.356,-0.446L0.242,-0.446L0.242,-0.183C0.242,-0.117 0.269,-0.084 0.322,-0.084C0.335,-0.084 0.349,-0.086 0.367,-0.091L0.367,-0.003Z" style="fill:white;fill-rule:nonzero;"/>
            </g>
            <g transform="matrix(12,0,0,12,329.105,641.477)">
                <path d="M0.09,-0L0.09,-0.536L0.235,-0.536L0.235,-0L0.09,-0ZM0.09,-0.626L0.09,-0.747L0.235,-0.747L0.235,-0.626L0.09,-0.626Z" style="fill:white;fill-rule:nonzero;"/>
            </g>
            <g transform="matrix(12,0,0,12,333.007,641.477)">
                <path d="M0.486,-0.012C0.426,0.004 0.37,0.012 0.319,0.012C0.234,0.012 0.166,-0.013 0.116,-0.063C0.067,-0.114 0.042,-0.182 0.042,-0.269C0.042,-0.356 0.068,-0.425 0.119,-0.474C0.17,-0.524 0.24,-0.548 0.331,-0.548C0.374,-0.548 0.424,-0.541 0.481,-0.527L0.481,-0.423C0.422,-0.442 0.375,-0.452 0.339,-0.452C0.296,-0.452 0.261,-0.435 0.235,-0.402C0.208,-0.369 0.195,-0.325 0.195,-0.27C0.195,-0.213 0.21,-0.168 0.238,-0.134C0.267,-0.1 0.305,-0.083 0.352,-0.083C0.395,-0.083 0.44,-0.093 0.486,-0.112L0.486,-0.012Z" style="fill:white;fill-rule:nonzero;"/>
            </g>
            <g transform="matrix(12,0,0,12,339.394,641.477)">
                <path d="M0.353,-0.058C0.305,-0.011 0.253,0.012 0.198,0.012C0.151,0.012 0.113,-0.002 0.084,-0.031C0.055,-0.059 0.04,-0.097 0.04,-0.142C0.04,-0.201 0.064,-0.247 0.111,-0.279C0.158,-0.311 0.226,-0.327 0.314,-0.327L0.353,-0.327L0.353,-0.376C0.353,-0.432 0.321,-0.459 0.258,-0.459C0.201,-0.459 0.145,-0.444 0.087,-0.412L0.087,-0.511C0.152,-0.536 0.217,-0.548 0.281,-0.548C0.422,-0.548 0.492,-0.493 0.492,-0.381L0.492,-0.144C0.492,-0.102 0.505,-0.081 0.532,-0.081C0.537,-0.081 0.543,-0.081 0.551,-0.083L0.555,-0.001C0.524,0.008 0.497,0.012 0.474,0.012C0.414,0.012 0.376,-0.011 0.359,-0.058L0.353,-0.058ZM0.353,-0.135L0.353,-0.244L0.319,-0.244C0.225,-0.244 0.179,-0.215 0.179,-0.156C0.179,-0.136 0.185,-0.12 0.199,-0.106C0.212,-0.093 0.229,-0.086 0.249,-0.086C0.283,-0.086 0.318,-0.102 0.353,-0.135Z" style="fill:white;fill-rule:nonzero;"/>
            </g>
            <g transform="matrix(12,0,0,12,346.449,641.477)">
                <rect x="0.09" y="-0.771" width="0.145" height="0.771" style="fill:white;fill-rule:nonzero;"/>
            </g>
            <g transform="matrix(12,0,0,12,256.057,653.477)">
                <path d="M0.09,-0L0.09,-0.723L0.361,-0.723C0.508,-0.723 0.581,-0.663 0.581,-0.543C0.581,-0.499 0.569,-0.458 0.544,-0.422C0.519,-0.385 0.485,-0.357 0.441,-0.337L0.677,-0L0.494,-0L0.315,-0.295L0.232,-0.295L0.232,-0L0.09,-0ZM0.232,-0.395L0.267,-0.395C0.376,-0.395 0.43,-0.439 0.43,-0.527C0.43,-0.591 0.382,-0.624 0.284,-0.624L0.232,-0.624L0.232,-0.395Z" style="fill:white;fill-rule:nonzero;"/>
            </g>
            <g transform="matrix(12,0,0,12,264.336,653.477)">
                <path d="M0.422,-0L0.422,-0.101C0.375,-0.026 0.314,0.012 0.239,0.012C0.191,0.012 0.154,-0.003 0.126,-0.033C0.098,-0.063 0.084,-0.105 0.084,-0.157L0.084,-0.536L0.229,-0.536L0.229,-0.193C0.229,-0.132 0.249,-0.102 0.29,-0.102C0.336,-0.102 0.38,-0.134 0.422,-0.199L0.422,-0.536L0.566,-0.536L0.566,-0L0.422,-0Z" style="fill:white;fill-rule:nonzero;"/>
            </g>
            <g transform="matrix(12,0,0,12,272.217,653.477)">
                <path d="M0.076,-0.017L0.076,-0.123C0.148,-0.093 0.209,-0.078 0.26,-0.078C0.319,-0.078 0.349,-0.098 0.349,-0.139C0.349,-0.165 0.324,-0.188 0.275,-0.207L0.227,-0.227C0.174,-0.248 0.136,-0.271 0.113,-0.296C0.09,-0.321 0.079,-0.351 0.079,-0.388C0.079,-0.438 0.098,-0.478 0.137,-0.506C0.175,-0.534 0.23,-0.548 0.299,-0.548C0.343,-0.548 0.395,-0.542 0.455,-0.529L0.455,-0.428C0.397,-0.448 0.349,-0.458 0.311,-0.458C0.251,-0.458 0.221,-0.439 0.221,-0.402C0.221,-0.378 0.243,-0.357 0.288,-0.34L0.33,-0.324C0.392,-0.3 0.436,-0.276 0.461,-0.252C0.485,-0.228 0.498,-0.196 0.498,-0.158C0.498,-0.107 0.477,-0.066 0.435,-0.035C0.393,-0.003 0.339,0.012 0.271,0.012C0.207,0.012 0.142,0.002 0.076,-0.017Z" style="fill:white;fill-rule:nonzero;"/>
            </g>
            <g transform="matrix(12,0,0,12,279.002,653.477)">
                <path d="M0.367,-0.003C0.332,0.007 0.305,0.012 0.285,0.012C0.16,0.012 0.097,-0.046 0.097,-0.164L0.097,-0.446L0.037,-0.446L0.037,-0.536L0.097,-0.536L0.097,-0.626L0.242,-0.643L0.242,-0.536L0.356,-0.536L0.356,-0.446L0.242,-0.446L0.242,-0.183C0.242,-0.117 0.269,-0.084 0.322,-0.084C0.335,-0.084 0.349,-0.086 0.367,-0.091L0.367,-0.003Z" style="fill:white;fill-rule:nonzero;"/>
            </g>
            <g transform="matrix(12,0,0,12,286.853,653.477)">
                <path d="M0.672,-0.029C0.602,0.002 0.518,0.018 0.421,0.018C0.303,0.018 0.211,-0.015 0.145,-0.082C0.078,-0.149 0.045,-0.242 0.045,-0.361C0.045,-0.483 0.079,-0.577 0.145,-0.642C0.212,-0.708 0.307,-0.741 0.43,-0.741C0.509,-0.741 0.587,-0.731 0.665,-0.713L0.665,-0.595C0.577,-0.626 0.503,-0.642 0.443,-0.642C0.367,-0.642 0.308,-0.617 0.267,-0.569C0.226,-0.521 0.205,-0.452 0.205,-0.363C0.205,-0.276 0.227,-0.208 0.272,-0.159C0.316,-0.11 0.378,-0.086 0.457,-0.086C0.528,-0.086 0.6,-0.104 0.672,-0.14L0.672,-0.029Z" style="fill:white;fill-rule:nonzero;"/>
            </g>
            <g transform="matrix(12,0,0,12,295.402,653.477)">
                <path d="M0.315,0.012C0.232,0.012 0.165,-0.013 0.116,-0.064C0.067,-0.114 0.042,-0.182 0.042,-0.268C0.042,-0.355 0.067,-0.423 0.116,-0.473C0.166,-0.523 0.234,-0.548 0.319,-0.548C0.404,-0.548 0.472,-0.523 0.522,-0.473C0.571,-0.423 0.596,-0.355 0.596,-0.269C0.596,-0.181 0.571,-0.112 0.521,-0.063C0.472,-0.013 0.403,0.012 0.315,0.012ZM0.318,-0.078C0.401,-0.078 0.442,-0.142 0.442,-0.269C0.442,-0.327 0.431,-0.373 0.409,-0.407C0.387,-0.441 0.357,-0.458 0.319,-0.458C0.281,-0.458 0.251,-0.441 0.229,-0.407C0.207,-0.373 0.196,-0.327 0.196,-0.268C0.196,-0.21 0.207,-0.164 0.229,-0.129C0.25,-0.095 0.28,-0.078 0.318,-0.078Z" style="fill:white;fill-rule:nonzero;"/>
            </g>
            <g transform="matrix(12,0,0,12,303.066,653.477)">
                <path d="M0.09,-0L0.09,-0.536L0.235,-0.536L0.235,-0.435C0.282,-0.511 0.343,-0.548 0.417,-0.548C0.465,-0.548 0.503,-0.533 0.531,-0.503C0.558,-0.473 0.572,-0.431 0.572,-0.379L0.572,-0L0.428,-0L0.428,-0.343C0.428,-0.404 0.408,-0.435 0.367,-0.435C0.321,-0.435 0.277,-0.402 0.235,-0.337L0.235,-0L0.09,-0Z" style="fill:white;fill-rule:nonzero;"/>
            </g>
            <g transform="matrix(12,0,0,12,310.947,653.477)">
                <path d="M0.076,-0.017L0.076,-0.123C0.148,-0.093 0.209,-0.078 0.26,-0.078C0.319,-0.078 0.349,-0.098 0.349,-0.139C0.349,-0.165 0.324,-0.188 0.275,-0.207L0.227,-0.227C0.174,-0.248 0.136,-0.271 0.113,-0.296C0.09,-0.321 0.079,-0.351 0.079,-0.388C0.079,-0.438 0.098,-0.478 0.137,-0.506C0.175,-0.534 0.23,-0.548 0.299,-0.548C0.343,-0.548 0.395,-0.542 0.455,-0.529L0.455,-0.428C0.397,-0.448 0.349,-0.458 0.311,-0.458C0.251,-0.458 0.221,-0.439 0.221,-0.402C0.221,-0.378 0.243,-0.357 0.288,-0.34L0.33,-0.324C0.392,-0.3 0.436,-0.276 0.461,-0.252C0.485,-0.228 0.498,-0.196 0.498,-0.158C0.498,-0.107 0.477,-0.066 0.435,-0.035C0.393,-0.003 0.339,0.012 0.271,0.012C0.207,0.012 0.142,0.002 0.076,-0.017Z" style="fill:white;fill-rule:nonzero;"/>
            </g>
            <g transform="matrix(12,0,0,12,317.732,653.477)">
                <path d="M0.315,0.012C0.232,0.012 0.165,-0.013 0.116,-0.064C0.067,-0.114 0.042,-0.182 0.042,-0.268C0.042,-0.355 0.067,-0.423 0.116,-0.473C0.166,-0.523 0.234,-0.548 0.319,-0.548C0.404,-0.548 0.472,-0.523 0.522,-0.473C0.571,-0.423 0.596,-0.355 0.596,-0.269C0.596,-0.181 0.571,-0.112 0.521,-0.063C0.472,-0.013 0.403,0.012 0.315,0.012ZM0.318,-0.078C0.401,-0.078 0.442,-0.142 0.442,-0.269C0.442,-0.327 0.431,-0.373 0.409,-0.407C0.387,-0.441 0.357,-0.458 0.319,-0.458C0.281,-0.458 0.251,-0.441 0.229,-0.407C0.207,-0.373 0.196,-0.327 0.196,-0.268C0.196,-0.21 0.207,-0.164 0.229,-0.129C0.25,-0.095 0.28,-0.078 0.318,-0.078Z" style="fill:white;fill-rule:nonzero;"/>
            </g>
            <g transform="matrix(12,0,0,12,325.396,653.477)">
                <path d="M0.09,-0L0.09,-0.536L0.235,-0.536L0.235,-0.435C0.272,-0.511 0.329,-0.548 0.406,-0.548C0.415,-0.548 0.424,-0.547 0.433,-0.545L0.433,-0.417C0.412,-0.424 0.393,-0.428 0.375,-0.428C0.318,-0.428 0.271,-0.399 0.235,-0.34L0.235,-0L0.09,-0Z" style="fill:white;fill-rule:nonzero;"/>
            </g>
            <g transform="matrix(12,0,0,12,330.851,653.477)">
                <path d="M0.367,-0.003C0.332,0.007 0.305,0.012 0.285,0.012C0.16,0.012 0.097,-0.046 0.097,-0.164L0.097,-0.446L0.037,-0.446L0.037,-0.536L0.097,-0.536L0.097,-0.626L0.242,-0.643L0.242,-0.536L0.356,-0.536L0.356,-0.446L0.242,-0.446L0.242,-0.183C0.242,-0.117 0.269,-0.084 0.322,-0.084C0.335,-0.084 0.349,-0.086 0.367,-0.091L0.367,-0.003Z" style="fill:white;fill-rule:nonzero;"/>
            </g>
            <g transform="matrix(12,0,0,12,335.715,653.477)">
                <path d="M0.09,-0L0.09,-0.536L0.235,-0.536L0.235,-0L0.09,-0ZM0.09,-0.626L0.09,-0.747L0.235,-0.747L0.235,-0.626L0.09,-0.626Z" style="fill:white;fill-rule:nonzero;"/>
            </g>
            <g transform="matrix(12,0,0,12,339.617,653.477)">
                <path d="M0.422,-0L0.422,-0.101C0.375,-0.026 0.314,0.012 0.239,0.012C0.191,0.012 0.154,-0.003 0.126,-0.033C0.098,-0.063 0.084,-0.105 0.084,-0.157L0.084,-0.536L0.229,-0.536L0.229,-0.193C0.229,-0.132 0.249,-0.102 0.29,-0.102C0.336,-0.102 0.38,-0.134 0.422,-0.199L0.422,-0.536L0.566,-0.536L0.566,-0L0.422,-0Z" style="fill:white;fill-rule:nonzero;"/>
            </g>
            <g transform="matrix(12,0,0,12,347.498,653.477)">
                <path d="M0.09,-0L0.09,-0.536L0.229,-0.536L0.229,-0.435C0.271,-0.511 0.332,-0.548 0.41,-0.548C0.45,-0.548 0.483,-0.538 0.509,-0.519C0.535,-0.499 0.551,-0.471 0.557,-0.435C0.607,-0.511 0.668,-0.548 0.739,-0.548C0.837,-0.548 0.886,-0.494 0.886,-0.386L0.886,-0L0.747,-0L0.747,-0.339C0.747,-0.402 0.726,-0.434 0.684,-0.434C0.64,-0.434 0.598,-0.403 0.557,-0.34L0.557,-0L0.418,-0L0.418,-0.339C0.418,-0.403 0.397,-0.435 0.354,-0.435C0.312,-0.435 0.27,-0.403 0.229,-0.34L0.229,-0L0.09,-0Z" style="fill:white;fill-rule:nonzero;"/>
            </g>
        </g>
    </g>
</svg>
