<?xml version="1.0" encoding="UTF-8" standalone="no"?>
<!DOCTYPE svg PUBLIC "-//W3C//DTD SVG 1.1//EN" "http://www.w3.org/Graphics/SVG/1.1/DTD/svg11.dtd">
<svg width="100%" height="100%" viewBox="0 0 1200 800" version="1.1" xmlns="http://www.w3.org/2000/svg" xmlns:xlink="http://www.w3.org/1999/xlink" xml:space="preserve" xmlns:serif="http://www.serif.com/" style="fill-rule:evenodd;clip-rule:evenodd;stroke-linecap:round;stroke-linejoin:round;">
    <g transform="matrix(20.3025,0,0,3.47197,-122.102,352.914)">
        <g id="Back-of-Vest" serif:id="Back of Vest">
            <g>
                <g id="color">
                    <path d="M15.52,11.4L15.52,60.6C15.52,64.66 18.86,68 22.92,68L48.8,68C52.86,68 56.2,64.66 56.2,60.6L56.2,11.4C56.2,7.34 52.86,4 48.8,4L36.277,5.47C36.092,5.477 35.908,5.477 35.723,5.47L23.2,4L22.92,4C18.86,4 15.52,7.34 15.52,11.4Z" style="fill:rgb(226,112,34);fill-rule:nonzero;"/>
                </g>
            </g>
        </g>
    </g>
    <g id="Layer-1" serif:id="Layer 1">
        <g transform="matrix(1,0,0,1,1009.4,506.362)">
            <path d="M0,-7.203L-12.072,-32.209C-12.009,-33.156 -11.961,-34.107 -11.961,-35.062C-11.961,-63.408 -41.439,-89.533 -91.03,-110.451L-91.03,-93.058C-95.866,-94.977 -100.901,-96.845 -106.147,-98.651L-106.147,-106.759C-177.021,-132.319 -282.53,-148.537 -400.388,-148.537C-503.361,-148.537 -596.917,-136.157 -666.179,-115.983L-666.179,-87.737L-666.181,-87.737L-666.181,-121.925C-737.141,-99.375 -781.135,-68.048 -781.135,-33.41C-781.135,-27.95 -780.034,-22.572 -777.918,-17.297L-785.146,-4.43C-785.146,-4.43 -790.938,3.082 -780.74,18.932C-771.746,32.909 -726.692,87.617 -702.913,116.267C-692.699,130.954 -685.772,140.001 -685.167,139.126C-684.212,137.74 -691.518,110.165 -711.802,78.703C-721.268,61.808 -732.57,39.42 -739.356,22.884C-720.414,34.874 -609.126,90.913 -382.124,90.685C-150.13,90.453 -47.009,17.834 -35.691,7.948C-39.646,23.837 -53.159,55.981 -63.936,78.586C-81.642,110.917 -88.056,139.064 -87.232,140.456C-86.708,141.334 -80.667,132.015 -71.756,116.913C-51.025,87.37 -11.739,30.974 -3.889,16.608C5.007,0.323 0,-7.203 0,-7.203" style="fill:rgb(165,43,0);fill-rule:nonzero;"/>
        </g>
        <g transform="matrix(1,0,0,1,1079.49,294.885)">
            <g transform="matrix(1,0,0,1,-1079.49,-294.885)">
                <path d="M401.45,184.677L408.495,188.027C411.776,186.139 415.068,184.29 418.39,182.49L425.576,136.529C426.301,131.873 429.308,127.917 433.489,126.111C437.679,124.286 442.474,124.873 446.157,127.647L482.377,154.832C485.952,153.655 489.536,152.512 493.157,151.425L508.786,107.84C510.365,103.397 514.033,100.146 518.493,99.216C522.931,98.307 527.525,99.848 530.615,103.296L561.114,137.415C564.794,136.992 568.501,136.605 572.202,136.284L595.757,96.608C598.125,92.59 602.346,90.144 606.875,90.144C611.417,90.144 615.63,92.59 618.014,96.608L641.563,136.284C645.262,136.605 648.954,136.992 652.639,137.415L683.138,103.296C686.224,99.848 690.802,98.307 695.252,99.216C699.718,100.134 703.38,103.397 704.968,107.84L720.585,151.425C724.211,152.512 727.795,153.647 731.364,154.832L767.596,127.647C771.268,124.883 776.059,124.294 780.244,126.111C784.439,127.917 787.434,131.873 788.163,136.529L795.344,182.49C798.671,184.29 801.963,186.149 805.236,188.027L817.038,182.416C840.938,195.185 843.188,200.164 863.391,211.259L862.82,228.25C865.72,230.662 868.588,233.122 871.408,235.615L914.97,224.906C919.385,223.823 924.028,225.206 927.223,228.545C930.436,231.896 931.752,236.727 930.71,241.339L920.432,286.771C922.832,289.705 925.184,292.692 927.499,295.708L972.223,294.083C976.775,293.904 981.044,296.204 983.561,300.141C986.088,304.06 986.486,309.078 984.583,313.395L966.068,355.783C967.864,359.186 969.653,362.617 971.362,366.102L1015.43,373.581C1019.9,374.346 1023.69,377.47 1025.42,381.828C1027.14,386.207 1026.61,391.199 1023.95,395.039L997.887,432.793C998.657,435.373 999.402,437.974 1000.15,440.574L1079.49,499.02C1079.49,499.02 1091.38,505.237 1079.49,527.419C1069,546.985 1011.68,627.534 981.352,669.787C969.063,690.651 960.448,703.761 959.18,703.004C957.173,701.812 960.645,667.44 984.324,623.39C1001.74,584.597 1022.91,525.993 1014.73,521.253C1014.73,521.253 991.022,500.273 951.858,507.298C609.024,674.905 239.429,504.414 239.429,504.414C239.097,504.16 239.259,504.289 239.423,504.417C221.914,512.393 213.187,523.471 213.187,523.471C205.513,530.04 238.238,587.033 263.454,624.089C296.164,665.391 306.012,700.593 304.136,702.238C302.948,703.274 291.57,691.293 274.964,671.945C235.644,633.836 161.193,561.091 146.693,542.74C130.25,521.937 141.546,513.086 141.546,513.086L215.242,434.801C215.442,434.132 215.628,433.46 215.829,432.793L189.763,395.039C187.122,391.199 186.561,386.207 188.289,381.828C190.031,377.457 193.804,374.335 198.283,373.581L242.346,366.102C244.069,362.617 245.856,359.186 247.655,355.783L229.127,313.395C227.246,309.078 227.629,304.06 230.156,300.141C232.678,296.204 236.986,293.948 241.499,294.083L286.223,295.708C288.532,292.692 290.887,289.716 293.265,286.771L283.008,241.339C281.973,236.727 283.278,231.896 286.499,228.545C289.702,225.206 294.341,223.832 298.764,224.906L342.318,235.615C345.153,233.122 348.015,230.662 350.909,228.25L350.602,219.081C371.131,208.477 391.293,201.325 401.45,184.677Z" style="fill:rgb(247,76,0);"/>
            </g>
            <g transform="matrix(1,0,0,1,-1079.49,-294.885)">
                <path d="M239.429,504.414C239.749,504.669 239.585,504.544 239.423,504.417C239.425,504.416 239.427,504.415 239.429,504.414Z" style="fill:rgb(247,76,0);"/>
            </g>
        </g>
        <g transform="matrix(1,0,0,1,917.896,244.679)">
            <path d="M0,232.466C0,232.466 53.179,230 123.032,159.004L132.93,137.025C132.93,137.025 24.513,29.177 193.048,-45.266C193.048,-45.266 178.293,-21.154 182.622,72.006C182.622,72.006 233.437,54.357 248.336,-27.934C248.336,-27.934 322.456,69.79 167.834,161.443C167.834,161.443 95.294,277.732 -6.971,266.593L0,232.466Z" style="fill:rgb(247,76,0);fill-rule:nonzero;"/>
        </g>
        <g transform="matrix(1,0,0,1,676.997,488.361)">
            <path d="M0,-78.192C0,-78.192 36.935,-118.635 73.871,-78.192C73.871,-78.192 102.893,-24.265 73.871,2.695C73.871,2.695 26.384,40.443 0,2.695C0,2.695 -31.658,-26.964 0,-78.192" style="fill-rule:nonzero;"/>
        </g>
        <g transform="matrix(1,0,0,1,719.761,425.169)">
            <path d="M0,0.004C0,15.75 -9.282,28.518 -20.732,28.518C-32.18,28.518 -41.462,15.75 -41.462,0.004C-41.462,-15.746 -32.18,-28.514 -20.732,-28.514C-9.282,-28.514 0,-15.746 0,0.004" style="fill:white;fill-rule:nonzero;"/>
        </g>
        <g transform="matrix(1,0,0,1,512.148,482.736)">
            <path d="M0,-83.609C0,-83.609 63.355,-111.661 80.648,-49.047C80.648,-49.047 98.762,23.933 28.618,28.052C28.618,28.052 -60.826,10.824 0,-83.609" style="fill-rule:nonzero;"/>
        </g>
        <g transform="matrix(1,0,0,1,543.968,426.204)">
            <path d="M0,0.002C0,16.241 -9.572,29.411 -21.381,29.411C-33.185,29.411 -42.76,16.241 -42.76,0.002C-42.76,-16.242 -33.185,-29.409 -21.381,-29.409C-9.572,-29.409 0,-16.242 0,0.002" style="fill:white;fill-rule:nonzero;"/>
        </g>
        <g transform="matrix(1,0,0,1,593.317,576.574)">
            <path d="M0,-40.271L80.796,-46.755C80.796,-46.755 78.058,-33.749 67.517,-23.986C67.517,-23.986 39.727,6.484 7.844,-26.519C7.844,-26.519 2.627,-32.148 0,-40.271" style="fill-rule:nonzero;"/>
        </g>
        <g transform="matrix(1,0,0,1,269.796,270.778)">
            <path d="M0,190.741C-0.667,190.741 -1.321,190.79 -1.973,190.842C-28.207,184.871 -101.946,165.657 -121.437,134.479C-121.437,134.479 -22.21,21.607 -177.297,-50.54L-159.24,74.338C-159.24,74.338 -207.049,42.389 -217.366,-27.008C-217.366,-27.008 -333.789,57.486 -165.982,138.466C-165.982,138.466 -150.762,195.653 -4.633,241.281L-4.526,240.846C-3.055,241.118 -1.549,241.281 0,241.281C13.808,241.281 25.003,229.969 25.003,216.01C25.003,202.054 13.808,190.741 0,190.741" style="fill:rgb(247,76,0);fill-rule:nonzero;"/>
        </g>
    </g>
    <g id="Left-Side-Vest" serif:id="Left Side Vest" transform="matrix(0.539141,0,0,0.479328,52.9516,314.266)">
        <g transform="matrix(17.6453,0,0,7.67569,-23.9629,83.3676)">
            <path d="M28.448,68C28.448,68 23.51,68 23.51,68C19.39,68 16,64.61 16,60.49L16,9.516C16,5 20.28,4 21.56,4L22.971,4C23.411,4 23.822,4.228 24.056,4.602L33.866,20.866C34.214,21.443 34.419,22.094 34.464,22.765L34.471,22.857C34.477,22.952 34.481,23.048 34.481,23.144L34.481,61.968C34.481,65.277 31.757,68 28.448,68Z" style="fill:rgb(226,112,34);fill-rule:nonzero;stroke:rgb(226,112,34);stroke-width:2px;"/>
        </g>
        <g transform="matrix(17.6453,0,0,7.67569,-23.9629,83.3676)">
            <path d="M15.52,59.04L34,59.04" style="fill:none;fill-rule:nonzero;stroke:rgb(252,234,43);stroke-width:2px;stroke-linecap:butt;stroke-linejoin:miter;stroke-miterlimit:10;"/>
        </g>
        <g transform="matrix(17.6453,0,0,7.67569,-23.9629,83.3676)">
            <path d="M15.52,48.8L34,48.8" style="fill:none;fill-rule:nonzero;stroke:rgb(252,234,43);stroke-width:2px;stroke-linecap:butt;stroke-linejoin:miter;stroke-miterlimit:10;"/>
        </g>
        <g transform="matrix(17.6453,0,0,7.67569,-23.9629,83.3676)">
            <path d="M20.64,4.038L28.32,48.8" style="fill:none;fill-rule:nonzero;stroke:rgb(252,234,43);stroke-width:2px;stroke-linecap:butt;stroke-linejoin:miter;stroke-miterlimit:10;"/>
        </g>
        <g transform="matrix(17.6453,0,0,7.67569,-23.9629,83.3676)">
            <path d="M28.448,68C28.448,68 23.51,68 23.51,68C19.39,68 16,64.61 16,60.49L16,9.516C16,5 20.28,4 21.56,4L22.971,4C23.411,4 23.822,4.228 24.056,4.602L33.866,20.866C34.214,21.443 34.419,22.094 34.464,22.765L34.471,22.857C34.477,22.952 34.481,23.048 34.481,23.144L34.481,61.968C34.481,65.277 31.757,68 28.448,68Z" style="fill:none;fill-rule:nonzero;stroke:black;stroke-width:2px;"/>
        </g>
    </g>
    <g id="Right-Side-Vest" serif:id="Right Side Vest" transform="matrix(-0.539141,0,0,0.479328,1158.19,314.266)">
        <g transform="matrix(17.6453,0,0,7.67569,-23.9629,83.3676)">
            <path d="M28.448,68C28.448,68 23.51,68 23.51,68C19.39,68 16,64.61 16,60.49L16,9.516C16,5 20.28,4 21.56,4L22.971,4C23.411,4 23.822,4.228 24.056,4.602L33.866,20.866C34.214,21.443 34.419,22.094 34.464,22.765L34.471,22.857C34.477,22.952 34.481,23.048 34.481,23.144L34.481,61.968C34.481,65.277 31.757,68 28.448,68Z" style="fill:rgb(226,112,34);fill-rule:nonzero;stroke:rgb(226,112,34);stroke-width:2px;"/>
        </g>
        <g transform="matrix(17.6453,0,0,7.67569,-23.9629,83.3676)">
            <path d="M15.52,59.04L34,59.04" style="fill:none;fill-rule:nonzero;stroke:rgb(252,234,43);stroke-width:2px;stroke-linecap:butt;stroke-linejoin:miter;stroke-miterlimit:10;"/>
        </g>
        <g transform="matrix(17.6453,0,0,7.67569,-23.9629,83.3676)">
            <path d="M15.52,48.8L34,48.8" style="fill:none;fill-rule:nonzero;stroke:rgb(252,234,43);stroke-width:2px;stroke-linecap:butt;stroke-linejoin:miter;stroke-miterlimit:10;"/>
        </g>
        <g transform="matrix(17.6453,0,0,7.67569,-23.9629,83.3676)">
            <path d="M20.64,4.038L28.32,48.8" style="fill:none;fill-rule:nonzero;stroke:rgb(252,234,43);stroke-width:2px;stroke-linecap:butt;stroke-linejoin:miter;stroke-miterlimit:10;"/>
        </g>
        <g transform="matrix(17.6453,0,0,7.67569,-23.9629,83.3676)">
            <path d="M28.448,68C28.448,68 23.51,68 23.51,68C19.39,68 16,64.61 16,60.49L16,9.516C16,5 20.28,4 21.56,4L22.971,4C23.411,4 23.822,4.228 24.056,4.602L33.866,20.866C34.214,21.443 34.419,22.094 34.464,22.765L34.471,22.857C34.477,22.952 34.481,23.048 34.481,23.144L34.481,61.968C34.481,65.277 31.757,68 28.448,68Z" style="fill:none;fill-rule:nonzero;stroke:black;stroke-width:2px;"/>
        </g>
    </g>
    <g transform="matrix(0.686196,0,0,0.328091,336.791,13.0165)">
        <g transform="matrix(1.5625,0,0,1.5625,0,0)">
            <path d="M493.714,374.857C483.657,374.857 475.428,366.628 475.428,356.571L475.428,324.571C475.428,225.828 409.599,138.057 319.999,109.714L319.999,99.657C319.999,90.514 311.77,82.286 302.628,82.286L209.371,82.286C200.228,82.286 192,90.515 192,99.657L192,109.714C102.4,137.143 36.571,221.257 36.571,320L36.571,356.571C36.571,366.628 28.342,374.857 18.285,374.857L0,374.857L0,429.714L512,429.714L512,374.857L493.714,374.857Z" style="fill:rgb(247,231,40);fill-rule:nonzero;"/>
        </g>
        <g transform="matrix(1.5625,0,0,1.5625,0,0)">
            <path d="M411.429,384L100.571,384C95.085,384 91.428,380.343 91.428,374.857C91.428,369.371 95.085,365.714 100.571,365.714L411.428,365.714C416.914,365.714 420.571,369.371 420.571,374.857C420.571,380.343 416.914,384 411.429,384" style="fill:rgb(226,112,34);fill-rule:nonzero;"/>
            <g transform="matrix(1,0,0,1.08136,1.87588,-11.3529)">
                <path d="M320,164.571C314.514,164.571 310.857,160.914 310.857,155.428L310.857,118.857C310.857,113.371 314.514,109.714 320,109.714C325.486,109.714 329.143,113.371 329.143,118.857L329.143,155.428C329.143,160.914 325.486,164.571 320,164.571" style="fill:rgb(226,112,34);fill-rule:nonzero;"/>
            </g>
            <g transform="matrix(1,0,0,1.08136,-129.382,-11.3529)">
                <path d="M320,164.571C314.514,164.571 310.857,160.914 310.857,155.428L310.857,118.857C310.857,113.371 314.514,109.714 320,109.714C325.486,109.714 329.143,113.371 329.143,118.857L329.143,155.428C329.143,160.914 325.486,164.571 320,164.571" style="fill:rgb(226,112,34);fill-rule:nonzero;"/>
            </g>
            <path d="M256,210.286C250.514,210.286 246.857,206.629 246.857,201.143L246.857,91.429C246.857,85.943 250.514,82.286 256,82.286C261.486,82.286 265.143,85.943 265.143,91.429L265.143,201.143C265.143,205.714 261.486,210.286 256,210.286" style="fill:rgb(226,112,34);fill-rule:nonzero;"/>
            <g transform="matrix(0.705214,0.51136,-0.241175,1.4549,63.1443,-118.438)">
                <path d="M139.886,135.314L173.715,237.714L72.229,203.886C89.6,176.457 112.457,152.686 139.886,135.314Z" style="fill:rgb(226,112,34);fill-rule:nonzero;"/>
            </g>
            <g transform="matrix(-0.705214,0.51136,0.241175,1.4549,451.292,-118.438)">
                <path d="M139.886,135.314L173.715,237.714L72.229,203.886C89.6,176.457 112.457,152.686 139.886,135.314Z" style="fill:rgb(226,112,34);fill-rule:nonzero;"/>
            </g>
        </g>
        <g transform="matrix(1.5625,0,0,1.5625,0,4.54747e-13)">
            <path d="M29.11,353.928L29.11,320C29.11,276.318 40.371,234.777 60.692,199.249C88.01,151.486 132.085,114.124 184.718,96.274L184.805,94.624L185.522,90.092L187.128,84.513C187.677,83.036 188.325,81.586 189.074,80.198C193.057,72.81 200.859,66.681 209.371,66.681L302.628,66.681C311.139,66.681 318.942,72.809 322.925,80.197C323.674,81.586 324.322,83.035 324.87,84.512L326.477,90.092L327.194,94.623L327.285,96.341C379.944,114.805 424.043,153.675 451.373,202.59C471.651,238.885 482.889,280.979 482.889,324.571L482.889,353.928C483.461,354.66 484.523,355.945 485.404,356.592C487.737,358.305 490.615,359.252 493.714,359.252L512,359.252C516.121,359.252 519.461,366.238 519.461,374.857L519.461,429.714C519.461,438.333 516.121,445.319 512,445.319L-0,445.319C-4.121,445.319 -7.461,438.333 -7.461,429.714L-7.461,374.857C-7.461,366.238 -4.121,359.252 0,359.252L18.285,359.252C21.384,359.252 24.262,358.305 26.595,356.592C27.476,355.945 28.538,354.66 29.11,353.928ZM312.538,102.93C311.95,102.198 310.983,101.062 310.181,100.463C308.008,98.839 305.371,97.891 302.628,97.891L209.371,97.891C206.627,97.891 203.991,98.839 201.818,100.463C201.016,101.062 200.048,102.198 199.461,102.93L199.461,109.714C199.461,117.46 196.745,124.033 193.081,125.155C140.928,141.12 96.999,176.449 70.263,223.195C53.835,251.917 44.032,284.686 44.032,320L44.032,356.571L43.661,362.687L42.659,368.142L41.24,372.706C40.754,373.988 40.198,375.24 39.571,376.445C35.543,384.189 27.574,390.462 18.285,390.462L7.461,390.462L7.461,414.109L504.539,414.109L504.539,390.462L493.714,390.462C484.425,390.462 476.456,384.189 472.428,376.445C471.801,375.24 471.245,373.988 470.759,372.706L469.34,368.142L468.338,362.687L467.967,356.571L467.967,324.571C467.967,289.166 458.14,255.781 441.67,226.304C414.941,178.463 371.023,141.637 318.883,125.144C315.235,123.99 312.538,117.431 312.538,109.714L312.538,102.93Z"/>
        </g>
    </g>
</svg>
