<?xml version="1.0" standalone="no"?>
<!DOCTYPE svg PUBLIC "-//W3C//DTD SVG 20010904//EN"
 "http://www.w3.org/TR/2001/REC-SVG-20010904/DTD/svg10.dtd">
<svg version="1.0" xmlns="http://www.w3.org/2000/svg"
 width="512.000000pt" height="515.000000pt" viewBox="0 0 512.000000 515.000000"
 preserveAspectRatio="xMidYMid meet">

<g transform="translate(0.000000,515.000000) scale(0.100000,-0.100000)"
fill="#000000" stroke="none">
<path d="M2520 5016 c-26 -9 -42 -26 -79 -92 -59 -104 -68 -114 -102 -114 -22
0 -48 19 -113 80 -73 68 -90 80 -120 80 -54 0 -79 -32 -121 -148 -22 -60 -45
-107 -56 -112 -40 -22 -68 -11 -138 54 -43 39 -82 66 -102 70 -66 13 -109 -47
-109 -151 -1 -76 -15 -134 -36 -150 -28 -20 -66 -16 -147 17 -109 43 -156 39
-186 -18 -9 -16 -9 -32 -1 -60 17 -63 24 -186 11 -210 -17 -32 -68 -37 -152
-14 -85 23 -118 20 -154 -16 -32 -31 -29 -63 16 -172 36 -89 38 -144 7 -162
-13 -6 -69 -15 -125 -18 -89 -5 -105 -9 -128 -30 -34 -32 -33 -78 2 -122 15
-18 46 -54 70 -80 35 -39 43 -54 43 -86 0 -51 -20 -64 -136 -94 -103 -25 -134
-49 -134 -101 0 -44 22 -71 114 -142 106 -81 107 -93 17 -154 -31 -21 -76 -60
-100 -86 -39 -42 -43 -51 -38 -82 4 -20 16 -46 28 -59 23 -24 115 -64 148 -64
27 0 71 -39 71 -63 0 -13 -35 -57 -95 -118 -98 -99 -110 -123 -85 -169 14 -27
42 -40 128 -61 111 -28 142 -45 142 -80 0 -15 -25 -75 -55 -132 -30 -57 -55
-113 -55 -124 0 -44 31 -56 171 -62 122 -6 132 -8 150 -30 24 -29 19 -51 -34
-153 -32 -63 -38 -84 -33 -111 14 -75 77 -89 205 -43 95 33 116 33 153 -5 l31
-30 -7 -119 c-8 -134 -4 -149 49 -174 39 -19 55 -14 109 31 35 29 139 83 160
83 24 0 42 -37 66 -135 28 -112 41 -139 79 -154 36 -15 51 -9 139 63 l63 51
-6 74 c-3 41 -5 136 -5 211 l0 138 -97 33 c-137 47 -146 57 -162 194 -22 198
-39 235 -106 235 -18 0 -87 -7 -154 -16 -87 -11 -125 -12 -140 -5 -30 17 -144
194 -187 291 -84 192 -126 394 -128 615 -1 218 -2 216 206 309 47 21 83 44 94
60 16 26 16 30 -13 129 -17 56 -34 110 -38 120 -7 16 3 17 124 17 l131 0 -2
-472 -3 -473 -137 -3 c-133 -2 -138 -3 -143 -25 -3 -12 -4 -96 -3 -187 l3
-165 585 0 585 0 3 188 2 187 -150 0 -150 0 0 147 0 146 227 -7 c244 -7 272
-13 340 -70 46 -39 70 -97 93 -231 25 -149 40 -185 76 -185 14 0 83 25 152 56
75 33 140 55 161 56 25 0 92 -28 221 -90 102 -50 197 -93 212 -97 57 -14 171
71 207 155 33 76 60 193 67 286 7 78 6 82 -16 94 -27 15 -155 6 -176 -11 -8
-6 -17 -27 -20 -47 -29 -153 -137 -235 -249 -188 -42 18 -48 30 -80 156 -39
160 -77 210 -204 271 l-56 27 50 23 c127 56 221 138 264 229 23 48 26 68 26
155 0 81 -5 109 -22 147 -67 147 -205 251 -401 301 -86 22 -95 22 -809 22
-398 0 -723 2 -723 5 0 12 119 121 183 168 140 104 407 218 539 229 l57 6 115
-112 c153 -147 148 -147 292 -8 l107 102 76 -1 c197 -2 551 -184 757 -390 92
-92 184 -235 184 -287 0 -14 -21 -83 -46 -153 -63 -180 -61 -225 13 -259 21
-10 79 -37 129 -61 122 -57 124 -63 124 -266 0 -211 -21 -339 -92 -580 -17
-59 -29 -111 -25 -114 9 -10 247 -73 274 -74 13 0 30 11 40 25 45 65 47 65
142 85 175 36 186 86 52 234 -40 44 -76 87 -81 96 -18 33 11 62 101 99 47 20
93 41 102 46 24 15 46 76 37 102 -9 21 -106 107 -167 147 -18 11 -31 27 -28
34 3 7 0 10 -5 7 -6 -4 -10 6 -10 23 0 24 13 39 80 92 87 69 110 96 110 135 0
43 -41 70 -151 100 -77 21 -104 33 -116 52 -21 32 -12 50 76 147 73 80 88 109
76 146 -12 39 -50 53 -153 57 -117 5 -136 8 -156 29 -25 24 -19 59 25 153 48
102 52 140 20 175 -31 32 -62 35 -141 14 -161 -44 -196 -7 -155 162 19 79 15
111 -20 146 -33 33 -91 31 -180 -6 -80 -35 -104 -37 -135 -12 -19 16 -23 32
-30 125 -8 116 -23 152 -65 163 -29 7 -94 -28 -170 -91 -64 -54 -82 -59 -121
-36 -32 19 -44 46 -75 170 -14 56 -57 101 -97 101 -24 0 -43 -15 -104 -80 -70
-75 -77 -80 -116 -80 -46 0 -68 22 -116 117 -43 86 -77 109 -136 89z m100
-345 c90 -64 50 -210 -60 -222 -41 -4 -63 4 -96 34 -114 104 29 277 156 188z
m140 -1037 c125 -37 164 -158 78 -241 -67 -65 -83 -68 -395 -71 l-283 -3 0
165 0 166 273 0 c221 0 284 -3 327 -16z m-1622 -24 c37 -23 52 -55 52 -108 -1
-63 -48 -102 -122 -102 -87 0 -139 78 -102 156 34 72 105 95 172 54z m2957
-10 c37 -34 48 -79 33 -126 -11 -31 -22 -44 -60 -62 -57 -29 -94 -24 -144 20
-29 26 -34 36 -34 75 0 55 12 78 53 104 43 27 117 21 152 -11z m-2478 -1640
c69 -42 79 -121 22 -176 -61 -58 -165 -27 -191 58 -10 35 -10 45 8 76 33 62
100 80 161 42z"/>
<path d="M3063 2378 c-259 -112 -469 -186 -697 -244 -81 -20 -155 -44 -163
-52 -13 -13 -14 -66 -10 -381 5 -435 16 -502 112 -717 84 -186 274 -412 498
-592 139 -111 364 -252 402 -252 15 0 40 15 230 138 146 95 217 152 341 277
208 209 314 391 384 658 39 148 53 318 48 611 -2 193 -6 238 -18 250 -8 7 -73
30 -145 50 -258 71 -475 150 -695 254 -58 27 -115 52 -127 54 -13 4 -73 -17
-160 -54z m261 -2 c214 -102 546 -223 761 -276 50 -12 93 -25 98 -29 13 -12
11 -638 -2 -711 -62 -337 -175 -553 -416 -795 -71 -72 -143 -141 -158 -153
-59 -48 -166 -121 -279 -191 -90 -55 -123 -71 -140 -65 -64 20 -291 172 -418
280 -318 269 -487 531 -547 846 -24 128 -27 783 -3 798 8 5 55 19 105 31 124
30 329 93 455 139 104 38 341 138 376 159 35 19 76 11 168 -33z"/>
<path d="M3368 1555 l-332 -325 -55 53 c-161 155 -244 233 -258 241 -12 6 -38
-14 -109 -85 -78 -78 -94 -99 -94 -124 0 -27 27 -57 203 -231 283 -281 302
-298 329 -290 39 10 840 813 858 860 14 37 3 54 -88 149 -52 53 -83 77 -99 77
-17 0 -111 -86 -355 -325z"/>
<path d="M438 2044 c-32 -10 -58 -27 -83 -56 -56 -66 -65 -112 -65 -344 l0
-203 -30 -35 c-19 -21 -45 -38 -68 -43 l-37 -9 -3 -76 -3 -76 33 -7 c18 -4 44
-15 57 -23 45 -30 51 -65 51 -286 0 -233 9 -290 53 -348 53 -69 79 -82 163
-86 l74 -4 0 79 0 79 -37 10 c-21 5 -45 21 -57 37 -20 27 -21 45 -26 275 -5
232 -6 249 -27 282 -12 19 -31 41 -42 48 -28 17 -26 36 4 50 14 6 34 26 45 44
18 30 20 51 20 236 0 238 6 263 70 290 45 19 54 42 48 127 l-3 50 -45 2 c-25
1 -66 -5 -92 -13z m9 -446 c-3 -8 -6 -5 -6 6 -1 11 2 17 5 13 3 -3 4 -12 1
-19z m0 -100 c-2 -13 -4 -3 -4 22 0 25 2 35 4 23 2 -13 2 -33 0 -45z m0 -60
c-3 -7 -5 -2 -5 12 0 14 2 19 5 13 2 -7 2 -19 0 -25z m0 -410 c-3 -8 -6 -5 -6
6 -1 11 2 17 5 13 3 -3 4 -12 1 -19z m86 -565 c-7 -2 -21 -2 -30 0 -10 3 -4 5
12 5 17 0 24 -2 18 -5z"/>
<path d="M4530 1977 c0 -84 1 -87 25 -93 14 -3 38 -22 55 -40 l30 -35 0 -187
c0 -104 5 -205 11 -227 7 -26 27 -55 55 -82 l45 -41 -35 -27 c-67 -51 -76
-115 -76 -536 0 -49 -43 -99 -84 -99 -26 0 -26 -1 -26 -79 0 -89 0 -89 83 -85
75 3 135 45 172 119 l30 60 5 245 c5 222 7 248 25 274 20 30 69 56 105 56 20
0 21 5 18 77 l-3 77 -34 7 c-41 8 -82 37 -98 70 -9 16 -13 82 -13 211 0 103
-5 210 -11 237 -22 105 -97 167 -214 178 l-65 6 0 -86z m267 -129 c-3 -8 -6
-5 -6 6 -1 11 2 17 5 13 3 -3 4 -12 1 -19z m-214 -1385 c-7 -2 -21 -2 -30 0
-10 3 -4 5 12 5 17 0 24 -2 18 -5z"/>
<path d="M790 1251 c-14 -27 -13 -94 3 -114 10 -14 35 -17 162 -19 l150 -3 3
-137 3 -137 -78 -3 -78 -3 -3 -48 c-4 -68 7 -77 89 -77 l70 0 -3 -157 -3 -158
-75 -3 c-44 -2 -78 -8 -82 -15 -12 -19 -9 -92 4 -105 9 -9 185 -12 729 -12
793 0 729 -6 729 64 0 64 -4 65 -225 68 l-200 3 -3 210 c-2 183 -4 212 -19
223 -13 9 -104 12 -374 12 l-357 0 -4 193 c-2 133 -7 199 -16 215 -13 22 -16
22 -212 22 -187 0 -200 -1 -210 -19z m67 3 c-3 -3 -12 -4 -19 -1 -8 3 -5 6 6
6 11 1 17 -2 13 -5z m-37 -115 c0 -6 -4 -7 -10 -4 -5 3 -10 11 -10 16 0 6 5 7
10 4 6 -3 10 -11 10 -16z m307 -91 c-3 -7 -5 -2 -5 12 0 14 2 19 5 13 2 -7 2
-19 0 -25z m0 -165 c-2 -27 -3 -5 -3 47 0 52 1 74 3 48 2 -27 2 -69 0 -95z
m-142 -143 c3 -5 1 -10 -4 -10 -6 0 -11 5 -11 10 0 6 2 10 4 10 3 0 8 -4 11
-10z m490 -190 l0 -155 -122 -3 -123 -3 0 161 0 161 123 -3 122 -3 0 -155z
m393 20 c4 -197 17 -180 -143 -180 l-135 0 0 160 0 161 138 -3 137 -3 3 -135z
m-371 43 c-3 -10 -5 -4 -5 12 0 17 2 24 5 18 2 -7 2 -21 0 -30z m470 0 c-3
-10 -5 -4 -5 12 0 17 2 24 5 18 2 -7 2 -21 0 -30z m-840 -185 c-2 -18 -4 -4
-4 32 0 36 2 50 4 33 2 -18 2 -48 0 -65z m840 10 c-2 -18 -4 -6 -4 27 0 33 2
48 4 33 2 -15 2 -42 0 -60z m-874 -155 c-13 -2 -33 -2 -45 0 -13 2 -3 4 22 4
25 0 35 -2 23 -4z m290 0 c-7 -2 -19 -2 -25 0 -7 3 -2 5 12 5 14 0 19 -2 13
-5z m770 0 c-13 -2 -35 -2 -50 0 -16 2 -5 4 22 4 28 0 40 -2 28 -4z"/>
</g>
</svg>
