<?xml version="1.0" standalone="no"?>
<!DOCTYPE svg PUBLIC "-//W3C//DTD SVG 20010904//EN"
 "http://www.w3.org/TR/2001/REC-SVG-20010904/DTD/svg10.dtd">
<svg version="1.0" xmlns="http://www.w3.org/2000/svg"
 width="784.000000pt" height="473.000000pt" viewBox="0 0 784.000000 473.000000"
 preserveAspectRatio="xMidYMid meet">

<g transform="translate(0.000000,473.000000) scale(0.100000,-0.100000)"
fill="#000000" stroke="none">
<path d="M2234 4546 c-45 -20 -68 -55 -98 -148 -15 -46 -32 -90 -39 -99 -18
-24 -52 -39 -88 -39 -28 0 -46 14 -125 95 -51 52 -104 97 -119 101 -35 9 -93
-15 -118 -48 -15 -20 -22 -52 -29 -133 -10 -121 -18 -148 -50 -169 -53 -34
-69 -31 -167 34 -50 34 -104 65 -119 69 -35 10 -84 -3 -108 -30 -22 -24 -25
-95 -11 -235 l8 -81 -30 -32 c-35 -37 -19 -37 -208 5 -104 24 -114 24 -142 9
-31 -15 -61 -60 -61 -90 0 -8 21 -71 46 -139 42 -114 45 -126 33 -152 -22 -45
-51 -54 -190 -54 -143 0 -167 -10 -189 -75 -15 -46 -3 -82 48 -143 69 -84 92
-124 92 -164 0 -49 -20 -61 -137 -87 -142 -31 -183 -60 -183 -131 0 -45 33
-90 117 -159 63 -52 83 -77 83 -105 0 -29 -52 -75 -148 -129 -99 -56 -122 -81
-122 -130 0 -43 36 -82 111 -122 41 -21 91 -49 113 -63 36 -23 38 -26 33 -64
-5 -34 -18 -54 -80 -117 -41 -42 -82 -87 -91 -101 -24 -36 -20 -88 9 -126 26
-34 39 -39 217 -89 97 -26 99 -51 18 -199 -64 -117 -74 -162 -44 -205 29 -41
71 -51 191 -45 98 6 110 5 133 -13 32 -27 30 -68 -10 -163 -43 -103 -49 -159
-21 -199 13 -17 36 -34 54 -39 32 -8 44 -7 173 21 82 18 133 13 165 -16 21
-19 21 -25 15 -134 -8 -127 0 -167 40 -196 48 -35 102 -22 221 53 56 36 109
40 141 10 23 -21 29 -47 35 -150 6 -87 27 -127 82 -151 40 -18 48 -18 78 -6
19 8 60 46 96 90 116 137 140 134 223 -32 31 -63 67 -123 80 -133 33 -26 90
-23 125 6 16 13 52 65 82 114 61 105 70 115 107 110 29 -3 39 -15 129 -141 45
-64 78 -82 133 -74 54 9 84 49 122 162 34 101 56 135 90 135 11 0 57 -34 102
-75 44 -42 92 -78 105 -81 39 -10 88 5 117 35 26 27 28 37 36 145 7 102 11
120 31 142 12 13 31 24 42 24 11 0 71 -20 134 -45 128 -51 149 -54 186 -25 43
34 49 77 26 205 -20 119 -17 156 16 169 28 11 97 7 188 -11 80 -15 90 -15 121
-1 34 17 66 69 66 109 0 12 -21 63 -46 112 -47 91 -56 136 -35 176 17 31 41
40 146 52 106 11 133 19 177 50 69 50 60 107 -32 204 -67 71 -100 120 -100
149 0 40 79 86 200 116 91 23 130 64 130 135 0 46 -28 75 -129 138 -46 29 -94
65 -105 80 l-21 28 20 37 c16 29 38 46 107 82 134 70 163 109 138 185 -13 39
-49 64 -130 90 -118 38 -150 64 -150 125 0 26 15 45 90 118 88 86 90 89 90
134 0 40 -5 50 -33 75 -35 30 -74 43 -187 62 -83 14 -114 36 -118 85 -3 38 4
54 82 180 39 65 44 92 22 135 -29 56 -90 75 -186 60 -30 -5 -83 -9 -118 -10
-111 -3 -122 30 -72 199 17 56 30 112 30 126 0 30 -40 80 -78 95 -30 13 -49 7
-220 -64 -56 -23 -68 -25 -93 -14 -52 21 -59 42 -59 167 0 125 -12 168 -57
197 -58 38 -92 26 -232 -85 -56 -45 -68 -51 -104 -48 -54 4 -76 36 -107 154
-33 126 -52 161 -95 173 -64 17 -97 0 -154 -83 -28 -40 -66 -87 -86 -105 -76
-67 -148 -28 -200 109 -33 87 -48 108 -92 126 -39 17 -40 17 -79 0z m161 -470
c47 -20 75 -69 75 -129 0 -42 -5 -54 -33 -82 -44 -44 -93 -53 -143 -29 -102
51 -110 184 -15 234 44 23 71 25 116 6z m-335 -283 c58 -75 232 -243 253 -244
77 -4 102 10 187 106 35 39 82 91 105 118 24 26 51 47 62 47 39 0 209 -49 290
-83 293 -124 521 -310 690 -562 66 -99 86 -143 79 -181 -4 -18 -54 -111 -111
-206 -128 -211 -129 -219 -52 -293 28 -28 98 -81 155 -119 56 -38 116 -81 133
-97 31 -29 31 -31 27 -107 -2 -43 -8 -84 -12 -90 -4 -7 -34 -12 -77 -12 -95 0
-135 -18 -148 -67 -6 -21 -11 -48 -11 -61 0 -32 -24 -84 -49 -106 -30 -27
-155 -35 -199 -12 -42 22 -50 39 -72 158 -11 55 -29 121 -41 146 -26 52 -115
144 -159 162 -16 7 -30 16 -30 21 0 5 22 20 49 34 115 58 239 192 276 300 26
74 24 194 -5 270 -88 231 -317 383 -624 414 -69 7 -381 11 -835 11 l-725 0 35
36 c96 101 328 268 467 338 81 41 264 106 299 106 12 0 31 -12 43 -27z m-760
-1468 l0 -515 -170 0 -170 0 -11 28 c-24 60 -70 261 -76 328 l-6 72 79 53
c110 74 172 124 206 166 54 69 49 101 -34 215 -71 97 -108 153 -108 161 0 4
65 7 145 7 l145 0 0 -515z m1315 504 c24 -7 55 -27 78 -51 33 -35 37 -44 37
-92 0 -76 -28 -115 -105 -143 -57 -21 -77 -22 -352 -22 l-293 -1 0 160 0 160
298 0 c186 0 312 -4 337 -11z m1372 -95 c67 -51 66 -133 -4 -194 -79 -70 -203
-8 -203 102 0 44 43 106 78 114 15 3 32 7 37 9 19 7 60 -7 92 -31z m-3143 -48
c98 -41 113 -159 29 -226 -23 -18 -38 -21 -86 -18 -49 4 -63 9 -89 36 -27 27
-32 38 -32 82 0 59 23 96 75 122 41 22 59 22 103 4z m1662 -603 c52 -28 110
-92 136 -151 11 -26 33 -104 49 -173 16 -70 35 -145 43 -167 39 -109 95 -180
174 -219 l57 -28 283 -5 282 -5 -45 -58 c-65 -82 -70 -83 -202 -53 -148 34
-187 34 -223 -2 -15 -16 -33 -46 -38 -68 -6 -21 -20 -76 -31 -121 -39 -158
-46 -166 -195 -208 -202 -59 -486 -73 -691 -36 -118 21 -280 72 -303 95 -8 8
-32 76 -53 152 -44 154 -55 176 -101 200 -36 18 -70 16 -217 -15 -52 -10 -100
-17 -107 -14 -8 3 -36 34 -64 69 l-50 64 580 0 580 0 -2 233 -3 232 -192 3
-193 2 0 151 0 150 243 -3 c226 -3 245 -4 283 -25z m-966 -1089 c29 -18 60
-71 60 -105 0 -38 -29 -89 -62 -109 -59 -36 -132 -21 -177 36 -38 48 -22 141
31 178 30 21 112 21 148 0z m1789 2 c89 -47 77 -171 -21 -222 -35 -18 -62 -18
-104 2 -82 39 -86 175 -6 218 35 19 95 20 131 2z"/>
<path d="M6805 4255 c-38 -7 -178 -32 -310 -54 -469 -81 -575 -104 -575 -129
0 -5 12 -14 27 -21 37 -17 342 -212 349 -223 7 -11 -22 -44 -207 -240 l-149
-156 -80 34 c-196 82 -357 115 -565 115 -161 0 -249 -10 -360 -42 -217 -63
-373 -142 -518 -262 l-47 -39 41 -46 c22 -26 48 -59 57 -74 9 -16 20 -28 25
-28 5 0 43 25 85 55 79 57 258 153 267 143 3 -3 -24 -54 -60 -114 -36 -59 -85
-158 -110 -219 -78 -189 -70 -175 -114 -175 -63 0 -68 -20 -13 -60 69 -51 103
-124 99 -210 -4 -77 -25 -126 -85 -198 -63 -74 -61 -95 27 -196 61 -71 73
-131 45 -227 -12 -40 -28 -65 -62 -96 l-45 -41 7 -57 c3 -32 11 -65 16 -75 17
-31 12 -60 -10 -61 -11 -1 -24 -3 -30 -4 -5 -1 -19 -3 -31 -4 -20 -1 -20 -2 5
-32 14 -17 26 -35 26 -40 0 -18 -22 -53 -53 -86 l-31 -33 92 0 92 0 15 -32
c94 -217 156 -334 221 -425 l16 -23 -38 14 c-150 54 -302 153 -423 273 l-83
84 -82 -16 c-133 -26 -126 -23 -118 -44 12 -32 113 -149 172 -199 201 -172
337 -252 549 -322 155 -52 272 -70 460 -70 266 0 449 42 676 155 72 35 168 93
215 129 105 79 257 236 327 338 105 152 200 372 238 554 61 288 33 609 -77
877 -84 207 -236 416 -409 563 l-90 76 43 38 c58 51 252 248 256 260 12 34 83
-42 198 -210 26 -39 51 -70 56 -70 18 0 37 72 87 330 29 146 66 334 82 418 17
84 29 165 27 180 -4 33 -24 36 -123 17z m-1595 -1190 l0 -285 -200 0 c-110 0
-200 3 -200 7 0 24 57 174 94 246 72 140 169 256 251 296 22 11 43 20 48 21 4
0 7 -128 7 -285z m290 230 c61 -42 143 -152 204 -273 30 -60 96 -220 96 -233
0 -6 -88 -8 -202 -7 l-203 3 -3 283 -2 282 37 -15 c21 -9 54 -27 73 -40z m355
-50 c169 -77 350 -223 467 -379 l61 -81 -188 -3 c-104 -1 -192 1 -196 5 -3 5
-14 33 -24 63 -23 73 -113 262 -157 330 -50 79 -60 100 -49 100 5 0 44 -16 86
-35z m-647 -862 l2 -213 -245 0 -245 0 0 64 c0 111 36 345 55 358 5 5 105 7
220 5 l210 -2 3 -212z m664 132 c10 -44 20 -140 24 -212 l7 -133 -256 0 -257
0 0 215 0 215 232 -2 233 -3 17 -80z m583 77 c25 -7 34 -18 53 -73 32 -88 59
-201 67 -281 l7 -68 -245 0 -244 0 -8 113 c-4 61 -15 156 -24 209 l-17 97 25
3 c66 8 359 8 386 0z m-1245 -827 l0 -215 -225 0 -225 0 -4 23 c-3 12 -10 47
-16 77 -7 30 -14 117 -17 193 l-6 137 247 0 246 0 0 -215z m687 123 c-8 -111
-32 -273 -46 -311 l-11 -27 -225 0 -225 0 0 215 0 215 257 0 256 0 -6 -92z
m678 40 c-17 -133 -70 -330 -98 -365 -7 -10 -64 -13 -223 -13 -118 0 -214 2
-214 4 0 2 6 37 14 78 8 40 20 135 27 211 l13 137 244 0 244 0 -7 -52z m-1365
-827 c0 -143 -4 -262 -9 -265 -14 -9 -93 48 -148 106 -67 72 -153 204 -203
313 -22 48 -40 91 -40 96 0 5 88 9 200 9 l200 0 0 -259z m570 251 c0 -13 -66
-165 -95 -217 -69 -124 -166 -236 -252 -289 l-43 -26 0 270 0 270 195 0 c107
0 195 -4 195 -8z m584 -4 c-24 -40 -133 -165 -196 -223 -122 -113 -314 -231
-406 -250 l-33 -7 27 29 c51 54 151 239 196 363 12 30 25 65 29 78 8 22 11 22
199 22 150 0 190 -3 184 -12z"/>
<path d="M7038 2659 c-3 -8 -6 -63 -7 -124 l-2 -110 48 -17 c27 -10 62 -31 78
-48 l30 -31 5 -312 c5 -299 6 -314 28 -358 12 -25 40 -63 63 -83 l40 -38 -37
-36 c-20 -20 -48 -62 -63 -92 -26 -55 -26 -55 -31 -367 -5 -292 -6 -313 -25
-338 -21 -28 -52 -49 -97 -65 l-28 -10 0 -121 0 -122 78 5 c137 9 234 73 288
191 l29 62 5 330 c4 245 8 336 18 353 22 39 91 82 131 82 60 0 62 5 59 126
l-3 109 -48 7 c-62 8 -106 35 -132 78 -19 33 -20 57 -26 355 -4 201 -10 334
-18 357 -29 91 -121 182 -209 208 -20 6 -67 13 -103 17 -51 4 -67 3 -71 -8z"/>
</g>
</svg>
