<?xml version="1.0" standalone="no"?>
<!DOCTYPE svg PUBLIC "-//W3C//DTD SVG 20010904//EN"
 "http://www.w3.org/TR/2001/REC-SVG-20010904/DTD/svg10.dtd">
<svg version="1.0" xmlns="http://www.w3.org/2000/svg"
 width="757.000000pt" height="730.000000pt" viewBox="0 0 757.000000 730.000000"
 preserveAspectRatio="xMidYMid meet">

<g transform="translate(0.000000,730.000000) scale(0.100000,-0.100000)"
fill="#000000" stroke="none">
<path d="M3491 7143 c-14 -12 -45 -85 -90 -216 -38 -109 -73 -203 -78 -208 -5
-5 -70 -18 -144 -29 -74 -11 -164 -27 -201 -36 l-68 -16 -27 33 c-206 247
-267 309 -302 309 -44 0 -374 -127 -393 -151 -16 -19 -18 -47 -18 -258 l0
-237 -67 -37 c-38 -20 -102 -58 -143 -85 l-75 -49 -130 65 c-185 92 -286 134
-310 128 -25 -6 -150 -110 -252 -211 -55 -53 -73 -77 -73 -98 0 -15 39 -117
86 -228 l85 -201 -26 -31 c-58 -72 -147 -192 -161 -219 l-15 -29 -107 6 c-59
4 -160 10 -226 14 -140 9 -162 6 -183 -25 -25 -38 -154 -345 -160 -379 -5 -29
7 -44 151 -202 l156 -172 -14 -33 c-8 -18 -28 -90 -46 -159 l-32 -125 -172
-58 c-94 -31 -196 -69 -226 -84 -66 -32 -64 -24 -81 -279 -10 -161 -10 -185 4
-206 14 -22 107 -68 322 -158 l90 -38 8 -68 c4 -37 14 -115 22 -173 8 -61 10
-107 5 -110 -47 -29 -332 -290 -337 -308 -7 -30 114 -398 142 -429 19 -21 31
-23 210 -33 105 -5 207 -10 228 -10 20 0 37 -5 37 -11 0 -11 126 -267 140
-284 5 -6 -27 -75 -74 -162 -115 -213 -130 -246 -122 -277 10 -39 254 -323
299 -348 14 -7 69 7 232 62 l214 72 62 -56 c34 -31 93 -79 130 -108 37 -29 66
-58 64 -65 -2 -6 -16 -104 -31 -218 -20 -148 -25 -212 -17 -224 19 -30 354
-221 388 -221 34 0 42 6 242 183 121 106 123 108 150 94 16 -8 79 -31 141 -51
91 -31 113 -42 117 -59 2 -12 14 -71 25 -132 42 -220 60 -285 83 -300 23 -14
326 -65 391 -65 53 0 74 26 180 224 l90 167 135 -3 135 -3 81 -147 c105 -191
125 -221 157 -232 33 -11 341 28 400 51 22 9 40 24 47 41 10 27 68 296 81 380
4 23 9 43 11 45 2 2 36 11 74 21 39 10 101 31 139 46 l69 29 76 -68 c231 -205
254 -223 291 -218 19 3 96 40 170 83 74 42 152 87 173 98 21 12 40 31 43 44 5
18 -25 266 -51 420 -4 24 9 38 132 136 l137 109 45 -16 c26 -8 118 -41 206
-72 96 -34 168 -54 181 -51 13 4 84 79 163 172 110 130 141 173 141 195 0 17
-41 105 -104 221 l-103 192 28 46 c15 25 51 93 79 152 l52 106 92 6 c50 3 149
8 220 11 97 4 134 9 147 21 9 8 48 107 85 219 80 237 82 217 -35 315 -236 199
-241 204 -241 235 0 56 31 320 38 326 4 4 69 35 145 68 189 84 253 117 261
136 9 25 7 134 -6 289 -11 130 -13 143 -37 167 -19 18 -81 43 -221 88 -107 35
-200 65 -206 66 -5 2 -21 50 -33 106 -13 57 -31 130 -42 163 l-18 59 147 164
c81 91 151 176 155 188 9 26 -8 74 -102 282 -70 156 -71 157 -238 143 -59 -4
-157 -11 -218 -15 l-110 -6 -42 63 c-23 35 -69 94 -102 132 -34 38 -61 73 -61
77 0 4 34 88 76 186 93 218 98 234 90 266 -7 28 -250 257 -299 283 -38 20 -60
12 -277 -95 -96 -47 -177 -87 -180 -89 -3 -1 -46 24 -95 56 -50 32 -114 71
-142 88 l-53 29 0 225 c0 124 -3 235 -6 248 -4 13 -23 31 -44 42 -66 34 -334
130 -361 130 -28 0 -32 -4 -295 -292 l-43 -46 -118 23 c-65 13 -157 29 -205
35 l-87 12 -66 201 c-49 147 -74 208 -91 225 -24 21 -31 22 -233 22 -184 0
-211 -2 -230 -17z m519 -1088 c365 -46 705 -165 1007 -355 234 -147 493 -379
661 -590 130 -163 112 -150 268 -193 247 -69 268 -76 315 -106 37 -23 54 -44
79 -95 l33 -67 -6 -252 c-20 -784 -157 -1367 -437 -1854 -381 -660 -941 -1092
-1637 -1262 -368 -90 -792 -88 -1158 4 -172 44 -351 108 -480 172 -77 39 -76
38 -28 89 56 61 108 166 123 251 20 113 -1 185 -112 387 l-33 60 0 955 0 956
22 59 c36 94 81 160 186 275 157 169 206 251 233 389 34 176 -2 354 -100 499
-68 99 -249 253 -299 253 -82 0 -87 -19 -87 -325 l0 -256 -25 -24 c-24 -25
-27 -25 -199 -25 -170 0 -176 1 -203 24 l-28 24 -3 194 c-3 224 -3 225 95 303
246 197 593 371 889 446 95 24 309 60 424 72 99 10 388 6 500 -8z m-2055 -439
c17 -12 18 -30 16 -299 -3 -345 -7 -331 132 -474 52 -54 99 -108 106 -120 13
-25 16 -2480 3 -2500 -5 -7 -37 -32 -73 -56 -120 -81 -174 -184 -167 -322 7
-128 64 -213 191 -285 33 -19 61 -43 72 -64 18 -32 18 -36 2 -60 -36 -54 -150
-23 -262 71 -96 80 -155 207 -155 336 0 85 18 155 66 249 67 133 64 88 64
1103 0 506 -4 945 -9 975 -22 131 -61 200 -197 340 -164 171 -219 276 -231
441 -11 147 44 323 141 447 85 109 224 230 267 231 8 1 24 -5 34 -13z m-339
-1176 c123 -127 166 -196 183 -296 6 -36 11 -412 13 -954 3 -860 2 -897 -16
-955 -11 -33 -21 -62 -23 -65 -6 -7 -36 33 -124 165 -252 379 -381 794 -396
1270 -10 330 42 646 158 946 l32 84 31 -40 c17 -22 81 -92 142 -155z m781
-2436 c78 -63 98 -147 55 -230 -60 -116 -194 -148 -283 -67 -104 94 -92 239
26 315 24 15 44 18 97 16 57 -3 72 -8 105 -34z"/>
<path d="M4680 5363 c-8 -3 -60 -39 -115 -78 -327 -238 -717 -412 -1175 -525
-161 -40 -176 -46 -200 -85 -17 -28 -20 -49 -20 -151 0 -232 34 -616 75 -864
28 -172 80 -385 130 -530 49 -145 162 -366 242 -478 79 -111 248 -291 376
-400 252 -216 640 -462 728 -462 60 0 356 179 564 340 317 246 571 546 686
811 111 257 202 646 244 1044 20 191 35 618 24 660 -17 61 -44 74 -241 120
-275 65 -464 132 -692 247 -152 76 -288 159 -460 281 -102 72 -129 84 -166 70z
m916 -1022 c70 -51 154 -147 154 -176 0 -51 15 -33 -523 -623 -407 -447 -612
-661 -645 -673 -15 -6 -34 -4 -55 5 -19 8 -141 128 -303 297 -445 466 -425
441 -385 504 24 38 120 137 154 160 54 35 75 20 323 -227 183 -182 236 -229
251 -224 11 3 73 63 139 134 178 189 482 519 622 674 67 75 134 146 149 157
35 29 73 26 119 -8z"/>
</g>
</svg>
